<?xml version="1.0" encoding="utf-8"?>
<!-- Generator: Adobe Illustrator 20.1.0, SVG Export Plug-In . SVG Version: 6.00 Build 0)  -->
<svg version="1.1" id="Calque_1" xmlns="http://www.w3.org/2000/svg" xmlns:xlink="http://www.w3.org/1999/xlink" x="0px" y="0px"
	 viewBox="0 0 432 432" style="enable-background:new 0 0 432 432;" xml:space="preserve">
<style type="text/css">
	.st0{fill:#020203;}
	.st1{fill:#C9983D;}
	.st2{fill:#CC7B26;}
	.st3{fill:#BE1824;}
	.st4{fill:#946137;}
	.st5{fill:#1E1E1C;}
	.st6{fill:#CB7B26;}
	.st7{fill:#CA7B26;}
	.st8{fill:#3AAA35;}
	.st9{fill:#E8501D;}
	.st10{fill:#1F71B8;}
	.st11{fill:#422A19;}
	.st12{fill:#A41A5C;}
	.st13{fill:#683C14;}
	.st14{fill:#CA9C41;}
	.st15{fill:#C7983E;}
	.st16{fill:#E30613;}
	.st17{fill:#008D36;}
	.st18{fill:#F8AC14;}
	.st19{fill-rule:evenodd;clip-rule:evenodd;fill:#CC7B26;}
</style>
<g>
	<g>
		<path class="st2" d="M298.5,182.7H132.3l10.3,25.8l-10.3,23.4h166.2l-9-24.2L298.5,182.7z M198.4,187.6c-0.7,0.4-1.7,0.4-1.7,0.5
			c-0.7,2.6-1.7,9-2.1,10.6c-0.3,1.2-0.5,2.6-0.8,4.2c-0.1,0.4-0.1,0.8-0.2,1.4c-0.4,1.4-0.9,2.8-1.2,4.2c-0.3,0.9-0.6,2.1-0.7,3.1
			c-0.3,1.5-0.7,3.1-1.2,4.8c-0.1,0.3-0.1,0.6-0.2,0.9c-0.3,2.4-1,5.3-1.7,7.5c-0.1,0.5-0.2,1.1-0.5,1.8c-0.2,0.7-0.8,1-1.2,0.5
			c-0.4-0.5-1.3-1.5-1.7-2.9c-1-3-1.7-6.7-2.2-9.8c-0.4-2.3-1-5.7-2.6-12.1c0-0.1-0.1-0.1-0.2-0.2c-0.1,0.1-0.2,0.2-0.2,0.3
			l-0.6,3.5c-0.2,0.7-0.4,1.6-0.5,2.3c-0.4,1.9-1.1,3.6-1.8,5.4c-0.6,1.3-0.9,2.6-1.3,3.9c-0.5,1.9-1.1,3.5-1.8,5.1
			c-0.6,1.5-1.1,2.9-1.4,4.3c-0.1,0.2-0.2,0.4-0.3,0.7c-0.2,0.3-0.5,0.5-0.8,0.3c-1.2-0.5-2.2-1.2-2.4-3c-0.6-2.4-1-4.8-1.3-7.1
			c-0.4-1.9-0.6-3.8-0.7-5.8c-0.3-3.5-0.4-7.3-0.6-10.8c-0.2-2.5-1.1-10.9-1.1-12.5c0-0.6-0.1-0.8-0.8-1c-0.4-0.2-0.7-0.2-1-0.5
			c-0.3-0.2-0.5-0.5-0.4-0.9c0.1-0.4,0.3-0.5,0.7-0.5l1.1,0.3l4.3,0.2c0.2,0.2,0.6,0.2,0.9,0.3c0.4,0,0.6,0.6,0.3,0.9
			c-0.1,0.4-0.3,0.8-0.4,0.9c0.2,1.5,0.4,2.7,0.5,4.1c0.2,1.1,0.4,2.3,0.5,3.5c0.3,2.2,0.4,4.4,0.6,6.5c0.1,1.9,0.2,3.5,0.4,5.2
			c0.1,2.2,0.4,4.2,0.4,6.4c0,0.6,0.1,1.3,0.3,2c0.2-0.4,0.3-0.5,0.4-0.7c0.8-2.4,1.7-4.7,2.6-7l2.5-8.9c0.2-0.4,0.4-1.1,0.5-1.4
			c0.2-1,0.4-3,1.1-3c2.3,0,3-0.5,3.9,1.8l0.3,1.4l2.8,14.4c0.1,0.5,0,1.1,0.4,1.6c0.4-0.6,0.5-1.3,0.7-2c0.5-2.1,0.9-4.2,1.5-6.4
			c0.6-1.9,1-3.8,1.5-6c0.6-2.5,1.2-4.9,1.6-7.5c0.2-0.7,0.4-1.2,0.5-1.8c0.4-0.8,0.6-1.8,0.9-2.8c-0.4-0.1-0.6-0.3-0.9-0.4
			c-0.2-0.1-0.6-0.4-0.9-0.7c-1.1-1.2,2.5-1.3,3.9-1.2c0.6,0.1,1.3,0.1,2,0.3C199.4,186.2,199.1,187.1,198.4,187.6z M211.6,188.6
			c-0.2,0-0.4,0.2-0.5,0.2c-0.2,0-0.4-0.1-0.6-0.1c-1.1,0.1-1.2,0.2-1.2,0.9c-0.1,0.5-0.1,1,0,1.3c0,0.6,0,1.2-0.1,1.8
			c-0.1,0.4,0,0.8-0.1,1.3c0,0.4,0,0.8-0.1,1.3c-0.2,1.4-0.2,2.8-0.2,4.2c0,1,0,2.1-0.1,3c-0.1,1.8-0.2,3.6-0.3,5.4
			c0,1.4,0.1,3,0,4.4c0,1.1,0,2.1-0.1,3.3l0.1,5.4c0.1,0.7,0.2,1.4,0.1,2.1c0,0.7-0.2,1.4-0.3,2.2c0.1,0.1,0,0.4-0.1,0.5
			c0.5,0.2,0.9,0,1.3,0.1l0.5,0.3c0.1,0.3-0.1,0.4-0.2,0.6c-0.3,0.2-0.6,0.2-0.9,0.3c-0.6,0.2-1.2,0.1-1.8,0.2
			c-0.8,0-2.8-0.2-3.6-0.1c-0.6,0-1.2-0.2-1.4-0.7c-0.1-0.1-0.1-0.4,0-0.5l1.3-0.4c0.4,0,0.6-0.4,0.7-0.8c0.3-0.8,0.4-1.5,0.4-2.4
			c-0.1-1.6,0-3.3,0-4.9c0-2.7-0.2-5.4-0.1-8.1c0-2.1,0-4.3,0.1-6.5c0-0.8,0.1-1.7,0.1-2.6c0-2.3,0.1-4.9,0.3-7.3
			c0-0.8,0.1-1.5,0.2-2.2v-2.1h-1.8c-0.3,0.1-0.7-0.1-1.2-0.2c-0.2-0.2-0.3-0.7-0.1-0.9c0.5-0.4,0.9-0.7,1.5-0.7
			c1.3-0.1,2.5-0.3,3.9-0.3c0.9,0,2,0.2,3.1,0.3c0.3,0,0.6,0.2,1,0.3c0.2,0,0.4,0.2,0.5,0.3C212.2,187.8,212,188.5,211.6,188.6z
			 M235.1,189.6c-0.1,0.2-0.3,0.6-0.5,0.9c-0.3,0.4-0.7,0.4-1.1,0.1c-0.1,0-0.1-0.1-0.2-0.2c-1-0.7-1.1-0.8-1.5-2
			c-0.2,0-0.4-0.1-0.7,0c-1.5,0.1-3.1,0.2-4.7,0.4c-0.1,0-0.2,0.1-0.3,0.2v0.3c0.4,0.8,0.4,1.8,0.5,2.6c0,2.5-0.1,4.8-0.3,7.2
			c-0.1,1.4-0.2,2.6-0.3,4c-0.1,0.6-0.1,1.2-0.1,1.8c0,0.2,0,0.5-0.1,0.7l-0.2,3.5l-0.3,3.7c-0.2,1.3-0.2,2.5-0.3,3.9
			c-0.2,0.6,0,1.3-0.1,2c0,0.7,0,1.5-0.1,2.2c0,0.2-0.1,0.4-0.1,0.5c0.2,1.4,0.1,2.6-0.1,4c0.1,0.3,0.2,0.5,0.6,0.5
			c0.3,0,0.6-0.1,1-0.1c0.3,0.1,0.5,0.2,0.6,0.5c0,0.2-0.1,0.4-0.3,0.6c-0.4,0.6-1.1,0.8-2,0.7c-0.9-0.2-1.8-0.1-2.7-0.1
			c-0.8,0.1-1.7-0.1-2.6-0.2c-0.5-0.1-1-0.3-1.3-0.8c-0.2-0.3-0.1-0.7,0.3-0.8c0.3,0,0.7,0,0.9-0.1c0.2-0.1,0.4-0.3,0.7-0.3
			c0.3-0.1,0.6-0.3,0.6-0.6c0-0.5,0.1-0.9-0.1-1.4c-0.1-0.9-0.1-1.9,0-2.9c0-0.8,0-1.6-0.1-2.4c0-1.2-0.1-2.4-0.1-3.6
			c-0.1-1,0-2.1,0.1-3.2c0-1.3,0.2-2.5,0.3-3.8c0.1-1.6,0.1-3.1,0.2-4.5v-1.4c0-0.8,0.1-1.7,0.1-2.4c0.1-0.2,0.1-0.4,0.1-0.5
			c-0.3-1.3,0-2.7,0-4.1c-0.1-1.3,0.1-2.7,0.2-4.1c0-0.2,0-0.5-0.1-0.7c-0.8-0.2-1.6-0.1-2.3-0.1c-0.9,0-1.8,0.1-2.5,0.4
			c-0.3,0.4-0.3,1.1-0.4,1.6c0,0.6-0.5,0.8-1.1,0.7c-0.2-0.1-0.5-0.2-0.5-0.5c-0.1-0.8,0-1.7-0.1-2.4c0.1-0.4,0.4-0.8,0.7-0.9
			c0.5-0.2,1.1-0.3,1.7-0.4c1.3-0.2,2.6-0.5,4.2-0.8c0.6-0.2,1.2-0.2,1.8-0.3c1.1-0.2,2.2-0.2,3.3-0.3c0.1,0,0.3-0.1,0.4-0.1
			c1.8-0.1,3.5-0.2,5.3-0.3c0.5,0,0.9,0.1,1.2,0.1c0.4,0,0.8,0.1,1.2,0.2l0.5,0.2c0.6,0,0.9,0.4,0.9,0.9
			C235.2,188.4,235.1,189.1,235.1,189.6z M262.8,187.6l-1.5,0.5c-0.4,0.4-0.3,1-0.3,1.5c0.1,2.2-0.2,4.4-0.3,6.5
			c0,0.6-0.3,3.3-0.3,3.9c0,1.9-0.3,3.7-0.6,5.6c-0.1,0.8,0.2-0.4,0.1,0.5c-0.2,2.1-0.4,4.2-0.5,6.2c0,0.7-0.1,1.4-0.1,1.9
			c0.1,3.4-0.3,6.6-0.3,10c0,0.5-0.1,0.9-0.1,1.4c0.7,0,1.3,0,2,0.1c0.3,0.1,0.5,0.2,0.8,0.2c0.2,0,0.2,0.4,0.1,0.6
			c-0.1,0-0.2,0.2-0.4,0.3c-0.6,0.1-1.2,0.3-1.7,0.4c-1.5,0.1-3,0.2-4.5-0.1c-0.1,0-0.2,0-0.3-0.1c-0.2-0.1-0.4-0.2-0.5-0.5
			c-0.1-0.3,0.2-0.5,0.5-0.6c0.1,0,0.3,0,0.4-0.1c0-0.1,0.1-0.2,0.1-0.3c-0.7-2.9-0.3-5.6-0.4-8.6l0.2-6.9c0-0.7,0-1.4,0.1-2.2
			c0-1.6-0.1-1.2,0.1-2.9c-0.1-0.2-0.1-0.5-0.1-0.6c-0.1-0.2-0.2-0.4-0.5-0.5c-0.5,0-0.8-0.1-1.2-0.1H249c-1.9,0.1-3.7,0.2-5.5,0.4
			c-0.1,0-0.2,0-0.2,0.1c0,0.1-0.1,0.2-0.1,0.3c-0.1,0.8,0.1-0.2,0,0.7c-0.1,1.1-0.3,2.3-0.3,3.5l-0.2,3.9c0,1.4,0,2.6-0.1,3.9
			l-0.1,5c0.1,1.2,0,2.4-0.3,3.4c-0.2,0.4-0.2,0.8-0.3,1.1c0.8,0.7,1.9,0.5,2.4,1.2c-0.4,0.7-0.9,1.2-1.7,1.2
			c-1.8,0-3.5-0.2-5.3-0.3c-0.3,0-0.7,0-0.9-0.4c0-0.3,0.3-0.6,0.7-0.7c0.4-0.1,0.9-0.2,1.4-0.4c0-0.3,0.1-0.5,0-0.7
			c-0.5-1.2-0.6-2.5-0.6-3.7c0-1.8,0-3.6-0.1-5.2c-0.1-3.2,0.3-6.3,0.2-9.5c0-1.5,0.2-4.9,0.7-10.5c0.2-2.3,0.3-4.4,0.4-6.6
			c0.1-0.2,0-0.4,0-0.7c0-0.7-0.2-1.2-0.9-1.5c-0.3-0.2-0.6-0.3-0.7-0.7c0-0.2,0.6-0.6,1.1-0.7c0.4,0,0.7-0.1,1-0.1
			c0.5,0,0.9,0.1,1.2,0.1c1.1,0.1,2.2,0.1,3.2-0.3c0.8-0.2,1.5,0.1,2.2,0.3c0.6,0.2,0.8,0.5,0.7,0.7c-0.1,0.4-1.2,1-1.3,0.9
			c-0.4,0.1-1.2,0.3-1.6,0.3c0.1,1.5-0.3,3-0.3,4.4c0,0.7-0.1,1.3,0,2c0,1.5-0.2,5.1-0.3,6.7c0,0,0,0.1,0.1,0.3
			c0.1,0,0.4,0.1,0.7,0.1c0.8,0,1.8-0.1,2.8-0.1h0.6c2.9-0.3,3.3-0.3,6.4-0.4h0.6c1-0.1,1.3-0.4,1.4-1.2c0.1-1.5,0.5-5,0.6-6.4
			c0.1-1.4,0.1-3,0.2-4.4v-1.6c-0.6-0.5-1.2-0.9-1.7-1.4c-0.2,0-0.1-0.4,0.1-0.5c0.6-0.1,1.3-0.3,2-0.3s1.6,0,2.5,0.2
			c0.9,0,1.8,0.2,2.8,0.3c0.3,0.2,0.5,0.4,0.8,0.7C263.1,187.3,263,187.5,262.8,187.6z"/>
		<g>
			<g>
				<path class="st0" d="M88.4,141.5c2.1,1.2,4.3,1.9,6.7,2.3c2.4,0.3,4.9,0.4,7.4,0c1.9-0.3,3.9-0.8,5.9-1.6s3.9-1.8,5.8-3.1
					c1.9-1.2,3.6-2.6,5.3-4.2c1.7-1.6,3.1-3.3,4.3-5.1c1.2-1.8,2.1-3.6,2.7-5.6c0.6-1.9,0.8-3.9,0.7-5.8c-0.4-4.1-1.4-8-3.1-11.7
					s-3.7-7.2-6.1-10.5s-4.9-6.4-7.6-9.3s-5.2-5.6-7.6-8.2s-4.4-5-6.1-7.3s-2.6-4.5-2.9-6.6c-0.1-1,0-2.1,0.3-3.3s0.8-2.3,1.5-3.3
					s1.4-1.9,2.4-2.6c0.9-0.7,1.9-1.2,2.9-1.3c1.6-0.2,3-0.1,4.3,0.3c1.3,0.4,2.4,1,3.5,1.9c-1.3,1.1-2.3,2.5-3,4
					c-0.6,1.6-0.9,3.3-0.6,5.2c0.1,1,0.4,1.9,0.7,2.7c0.4,0.9,0.8,1.6,1.3,2.2s1.1,1.1,1.7,1.4s1.3,0.5,2,0.4
					c0.6-0.1,1.3-0.3,1.9-0.7c0.6-0.4,1.1-1,1.6-1.7s0.8-1.7,1-2.8c0.2-1.1,0.3-2.4,0.1-3.9c-0.2-1.4-0.6-2.8-1.3-4
					c-0.7-1.2-1.6-2.3-2.7-3.2c1.6-1,3.6-1.7,6-1.9c1.5-0.2,2.8,0,3.8,0.4c1.1,0.4,2,1,2.7,1.7s1.3,1.5,1.6,2.3
					c0.4,0.8,0.7,1.6,0.8,2.2c0.1,0.3,0.2,0.5,0.4,0.6c0.2,0.1,0.4,0.2,0.6,0.1c0.2,0,0.3-0.1,0.5-0.3c0.1-0.2,0.2-0.4,0.1-0.7
					c-0.2-0.9-0.6-1.8-1.1-2.7c-0.5-1-1.2-1.8-2.1-2.6s-1.9-1.4-3.2-1.8c-1.2-0.4-2.6-0.6-4.2-0.4c-1.3,0.1-2.6,0.4-3.8,0.7
					c-1.2,0.4-2.2,0.8-3.2,1.5c-1.4-1-3-1.7-4.8-2.2c-1.7-0.5-3.5-0.6-5.2-0.4c-1.3,0.2-2.7,0.7-4.4,1.5c-1.6,0.8-3.1,1.9-4.5,3.2
					s-2.5,2.8-3.4,4.6c-0.9,1.7-1.2,3.5-0.9,5.4c0.3,2.5,1,4.7,1.9,6.9c0.9,2.1,2.1,4.2,3.4,6.1c1.3,2,2.8,3.9,4.4,5.7
					c1.6,1.8,3.2,3.7,4.9,5.5c1.7,1.8,3.3,3.7,5,5.6s3.2,3.9,4.5,5.9c-1.9,1.5-3.7,3.2-5.4,4.9c-1.6,1.7-3.2,3.5-4.5,5.2
					c-1.4-1.5-3.1-2.6-4.9-3.4s-3.7-1-5.8-0.7c-1.4,0.2-2.9,0.7-4.4,1.6c-1.5,0.8-2.8,2.1-3.9,3.6c-1.1,1.6-1.9,3.6-2.5,5.9
					c-0.5,2.4-0.5,5.2,0,8.4s1.5,5.9,3,8C84.6,138.7,86.4,140.3,88.4,141.5z M111.7,60.6c0.5,1.1,0.8,2.3,0.9,3.5
					c0.1,1.3,0.2,2.4,0.1,3.3s-0.2,1.6-0.4,2.2c-0.2,0.6-0.5,1-0.8,1.2c-0.3,0.3-0.6,0.4-0.9,0.4s-0.6,0-0.9-0.2
					c-0.3-0.1-0.6-0.4-0.9-0.9s-0.6-1.1-0.8-1.9c-0.3-0.8-0.5-1.8-0.6-3.1c-0.2-1.6-0.1-3,0.4-4.3c0.4-1.3,1.1-2.4,2-3.4
					C110.6,58.5,111.2,59.5,111.7,60.6z M102.7,120.2c0.5,1.2,0.8,2.3,0.9,3.3c0.2,1.2,0.1,2.4,0,3.6c-0.2,1.2-0.5,2.2-0.9,3.1
					s-0.9,1.7-1.5,2.3s-1.2,0.9-1.8,1c-0.6,0.1-1.1,0-1.5-0.3s-0.7-0.7-0.9-1.1c-0.2-0.5-0.4-1-0.4-1.5c-0.1-0.5-0.1-1-0.2-1.5
					c-0.2-1.7,0-3.6,0.9-5.8c0.8-2.2,2-4.4,3.6-6.8C101.7,117.8,102.3,119,102.7,120.2z M82,121.8c0.2-2,0.8-3.9,1.5-5.5
					c0.8-1.6,1.8-2.9,3-4s2.7-1.7,4.3-1.9c1.9-0.3,3.7,0.1,5.2,1.1s2.9,2.3,4,3.8c-2.1,2.8-3.6,5.6-4.6,8.2s-1.4,4.9-1.1,6.7
					c0.2,1.6,0.8,2.9,1.7,3.9c0.9,1,2.1,1.4,3.5,1.2c0.9-0.1,1.8-0.5,2.6-1.1c0.9-0.6,1.6-1.4,2.2-2.5s1.1-2.4,1.4-3.9
					c0.3-1.5,0.3-3.3,0.1-5.3c-0.2-1.5-0.6-3-1.2-4.4s-1.3-2.7-2.1-3.8c2.6-3.5,5.9-6.8,9.7-10c1.4,2.2,2.5,4.6,3.5,7
					c0.9,2.4,1.6,5,1.9,7.9c0.2,1.7,0,3.4-0.4,5.1c-0.5,1.7-1.2,3.4-2.1,4.9c-0.9,1.6-2,3.1-3.3,4.4c-1.3,1.4-2.7,2.6-4.2,3.7
					c-1.5,1.1-3.1,2-4.7,2.7s-3.3,1.2-4.8,1.4c-1.7,0.2-3.4,0.1-5.1-0.3c-1.7-0.4-3.3-1.2-4.8-2.3s-2.7-2.6-3.8-4.4
					c-1.1-1.8-1.8-4-2.2-6.5C81.8,125.9,81.8,123.8,82,121.8z"/>
				<path class="st0" d="M128.6,89.7c-0.6,0.1-1,0.1-1.2,0.2c-0.3,0.1-0.5,0.2-0.5,0.2c-0.1,0.1-0.1,0.2-0.1,0.3
					c0,0.1,0.1,0.2,0.1,0.4c0,0.2,0,0.8,0,1.8c0,0.9,0,2.1,0.1,3.3c0,1.3,0.1,2.5,0.1,3.9c0,1.3,0.1,2.5,0.2,3.5s0.3,2.1,0.6,3.2
					s0.7,2.2,1.3,3.1c0.5,1,1.2,1.7,2,2.3c0.8,0.6,1.8,0.8,2.9,0.7c0.7-0.1,1.4-0.3,2-0.7c0.6-0.4,1.2-0.9,1.7-1.6
					c0.5-0.6,0.9-1.3,1.3-2.1c0.4-0.8,0.7-1.6,1-2.4c0.6-1.9,1.1-4,1.5-6.4c0,3.7,0.3,6.9,0.8,9.7c0.2,1.2,0.5,2.4,0.9,3.5
					s0.8,2.1,1.4,3c0.5,0.9,1.2,1.6,1.9,2.1s1.6,0.7,2.6,0.6c1.1-0.1,2.2-0.7,3.1-1.7c0.9-1.1,1.8-2.4,2.5-4.1
					c0.7-1.6,1.4-3.4,2-5.4c0.6-1.9,1-3.8,1.5-5.7c0.4-1.9,0.8-3.5,1-5.1c0.3-1.5,0.5-2.6,0.6-3.4c0-0.5-0.2-0.8-0.6-0.9
					c-0.5,0-0.7,0.2-0.9,0.8c-0.1,0.7-0.3,1.7-0.6,3.1s-0.6,3-0.9,4.7c-0.3,1.7-0.8,3.5-1.2,5.3c-0.5,1.8-1,3.5-1.5,5
					c-0.6,1.5-1.2,2.8-1.9,3.8s-1.4,1.5-2.2,1.6c-0.5,0-0.8-0.3-1.1-1s-0.5-1.6-0.7-2.8c-0.2-1.2-0.3-2.5-0.3-4
					c-0.1-1.5-0.1-3.1-0.1-4.7s0.1-3.2,0.1-4.8c0-1.6,0.1-3.1,0.2-4.4c0.1-1.3,0.1-2.4,0.1-3.4c0-0.9,0-1.5,0-1.8
					c0-0.6-0.3-1.1-0.6-1.6c-0.4-0.5-0.9-0.9-1.4-1.2c-0.6-0.3-1.2-0.6-1.8-0.7c-0.6-0.2-1.2-0.2-1.7-0.2s-0.8,0.1-1,0.2
					s-0.2,0.3-0.2,0.5s0.1,0.5,0.2,0.8c0.1,0.3,0.2,0.6,0.2,1c0,0.1-0.1,0.8-0.2,1.9c-0.2,1.1-0.4,2.5-0.7,4c-0.3,1.6-0.6,3.3-1,5.1
					c-0.4,1.8-0.8,3.5-1.3,5s-0.9,2.8-1.5,3.9c-0.5,1-1,1.6-1.6,1.6c-0.4,0-0.7-0.3-0.9-0.9s-0.3-1.4-0.3-2.5c-0.1-1-0.1-2.1,0-3.4
					c0-1.2,0.1-2.4,0.2-3.6c0.1-1.2,0.2-2.3,0.2-3.3c0.1-1,0.1-1.8,0-2.3c0-0.6-0.3-1.1-0.8-1.6s-1-1-1.6-1.4s-1.3-0.7-2-1
					C129.8,89.7,129.2,89.6,128.6,89.7z"/>
				<path class="st0" d="M154.5,90c0.3,0.7,0.7,1.3,1.2,1.7c0.5,0.5,1,0.7,1.8,0.6c0.8,0,1.5-0.2,2.2-0.4c0.7-0.2,1.3-0.5,1.9-0.8
					c0.6-0.3,1.1-0.5,1.6-0.8c0.5-0.2,0.9-0.4,1.3-0.4c-0.2,3.7-0.3,7.1-0.4,10.3c0,1.3-0.1,2.7-0.1,4s-0.1,2.5-0.1,3.7
					c0,1.1-0.1,2.1,0,3c0,0.8,0,1.4,0,1.8c0,0.7,0.1,1.6,0.2,2.7c0.1,1.1,0.2,2.2,0.4,3.4c0.2,1.2,0.5,2.4,0.9,3.5
					c0.4,1.2,0.9,2.2,1.5,3.2c0.6,0.9,1.4,1.7,2.4,2.2c0.9,0.5,2.1,0.8,3.4,0.7c0.8,0,1.6-0.8,2.4-2.4c0.8-1.6,1.6-3.5,2.3-5.9
					s1.4-5,2-7.9s1.2-5.7,1.7-8.4c0.5-2.7,1-5.2,1.3-7.4c0.4-2.2,0.6-3.8,0.8-4.9c0.1-0.3,0-0.5,0-0.6c0.6-0.2,1.1-0.4,1.6-0.6
					c0.6-0.3,1.1-0.5,1.6-0.7s0.9-0.3,1.3-0.3c-0.3,3.7-0.5,7.1-0.6,10.3c-0.1,1.3-0.2,2.7-0.2,4c-0.1,1.3-0.1,2.5-0.2,3.7
					c-0.1,1.1-0.1,2.1-0.1,3c0,0.8,0,1.4,0,1.8c0,0.7,0,1.6,0.1,2.7c0,1.1,0.2,2.2,0.3,3.4c0.2,1.2,0.4,2.4,0.8,3.6
					c0.3,1.2,0.8,2.2,1.4,3.2c0.6,1,1.4,1.7,2.3,2.3c0.9,0.6,2.1,0.9,3.4,0.8c0.8,0,1.7-0.8,2.5-2.3s1.7-3.5,2.5-5.9s1.6-5,2.3-7.9
					c0.6-2.5,1.2-4.9,1.7-7.3c0.1,0.2,0.3,0.4,0.4,0.5c0.9,0.9,1.9,1.6,3.2,2.1s2.7,0.8,4.4,0.8c1.1,0,2.1-0.2,3.1-0.6
					c0.9-0.4,1.8-1,2.5-1.8c0.8-0.8,1.5-1.7,2.1-2.7s1.2-2.1,1.6-3.3c1.9,0,3.5-0.3,4.9-0.9c0.9-0.4,1.7-0.9,2.5-1.5
					c-0.1,1-0.1,1.9-0.1,2.6c0,1,0,2.1,0.2,3.3c0.2,1.2,0.5,2.3,0.9,3.3s1,1.9,1.7,2.6s1.7,1.1,2.8,1.1c0.7,0,1.4-0.1,2.1-0.5
					c0.7-0.3,1.3-0.8,1.8-1.3c0.6-0.6,1.1-1.2,1.5-2c0.5-0.7,0.9-1.5,1.3-2.3c0.8-1.8,1.6-3.8,2.2-6.2c-0.4,3.6-0.6,6.9-0.4,9.8
					c0.1,1.2,0.2,2.4,0.4,3.6s0.6,2.2,1,3.2c0.4,0.9,1,1.7,1.7,2.3c0.7,0.6,1.5,0.9,2.5,1c1.1,0.1,2.2-0.4,3.3-1.4c1-1,2-2.2,3-3.7
					c0.9-1.5,1.8-3.2,2.6-5.1c0.8-1.8,1.5-3.6,2.1-5.3c0,1.3,0.1,2.5,0.3,3.6c0.2,1.3,0.6,2.5,1,3.4c0.5,0.9,1.1,1.4,1.9,1.4
					c1.5,0.1,2.5-0.1,3.1-0.5c0.6-0.5,1-1,1-1.6c0.1-1.4,0.4-2.9,0.8-4.7c0.4-1.8,0.9-3.6,1.5-5.5s1.3-3.7,2-5.5
					c0.8-1.8,1.5-3.4,2.3-4.8s1.6-2.5,2.3-3.3c0.8-0.8,1.5-1.2,2.1-1.2s0.8,0.7,0.8,2s-0.1,3-0.4,5c-0.3,2.1-0.7,4.4-1.1,7
					c-0.5,2.6-0.9,5.3-1.2,8.1c-0.4,2.8-0.6,5.5-0.8,8.1c-0.2,2.7-0.2,5,0.1,7.1c0.2,2.1,0.8,3.8,1.6,5.2c0.8,1.4,2,2.1,3.6,2.2
					c0.6,0.1,1.2-0.3,1.9-1c0.7-0.7,1.5-1.7,2.3-3s1.6-2.8,2.5-4.4c0.9-1.7,1.7-3.4,2.6-5.3c0.9-1.8,1.7-3.7,2.5-5.6
					c0.6-1.5,1.2-2.9,1.8-4.3c0.1,0.1,0.2,0.2,0.4,0.3c1.1,0.6,2.5,1,4.2,1.2c1.5,0.2,2.8,0,4.1-0.4c1.3-0.4,2.4-0.9,3.4-1.5
					c1.1-0.7,2.1-1.5,3.1-2.4c-0.5,5-0.8,9.6-0.6,13.6c0.1,1.7,0.2,3.4,0.3,5.1c0.2,1.6,0.5,3.1,0.9,4.5c0.4,1.3,0.9,2.4,1.6,3.3
					c0.7,0.9,1.5,1.4,2.5,1.5c1.9,0.3,3.7-0.2,5.5-1.2c1.8-1.1,3.4-2.5,5-4.4c1.6-1.8,3.1-3.9,4.5-6.2c1.4-2.3,2.7-4.6,3.8-6.8
					c1.1-2.2,2.1-4.3,2.9-6.1c0.8-1.9,1.4-3.3,1.8-4.2c0.1-0.2,0.1-0.4,0.1-0.6c-0.1-0.2-0.2-0.3-0.4-0.3c-0.2-0.1-0.4,0-0.6,0
					c-0.2,0.1-0.4,0.3-0.5,0.6c-0.4,0.9-1,2.3-1.8,3.9c-0.8,1.7-1.7,3.5-2.7,5.4s-2.1,3.9-3.3,5.9c-1.2,2-2.3,3.8-3.5,5.4
					s-2.3,2.8-3.4,3.8s-2.1,1.4-3,1.3c-0.6-0.1-1.1-0.6-1.4-1.6s-0.5-2.3-0.6-3.8s-0.1-3.3-0.1-5.3c0.1-2,0.2-4,0.3-6.1
					c0.3-4.8,0.9-10.2,1.8-16.3c3.6-3.2,6.9-6.3,9.9-9.4c1.3-1.3,2.6-2.7,3.8-4.2c1.3-1.5,2.4-3,3.5-4.5c1-1.5,1.9-3,2.7-4.4
					c0.7-1.5,1.2-2.9,1.4-4.2c0.1-0.7,0.2-1.4,0.2-2.2c0-0.8,0-1.5-0.2-2.2c-0.1-0.7-0.4-1.2-0.8-1.7s-1-0.8-1.8-0.9
					c-2.1-0.3-4.1-0.2-5.9,0.3s-3.5,1.3-5,2.4c-1.5,1.1-2.9,2.3-4.2,3.8c-1.2,1.5-2.3,3-3.3,4.6c-2.2,3.7-4.1,8-5.4,12.9
					c-0.4-0.2-0.8-0.5-1.4-0.7c-0.5-0.2-1-0.4-1.7-0.5c-0.7-0.2-1.4-0.3-2.2-0.4c-1.8-0.2-3.6,0-5.5,0.8c-1.9,0.7-3.7,1.7-5.4,3
					c-1.7,1.3-3.1,2.7-4.2,4.3c-1.1,1.6-1.8,3.3-2,4.9s-0.2,3.1,0,4.4s0.5,2.5,1.1,3.4c0.2,0.4,0.5,0.7,0.8,1
					c-0.3,0.8-0.6,1.6-1,2.4c-1,2.2-2,4.6-3,6.9c-1.1,2.4-2.1,4.5-3.1,6.4s-2,3.5-2.8,4.7c-0.9,1.2-1.6,1.8-2.1,1.8
					c-0.7-0.1-1.1-0.7-1.1-2c-0.1-1.3,0-2.9,0.3-4.9s0.7-4.2,1.3-6.7c0.6-2.5,1.1-4.9,1.7-7.4c0.6-2.4,1.1-4.8,1.6-6.9
					c0.5-2.2,0.8-4,0.9-5.4c0.1-1.2,0.2-2.4,0.1-3.7c0-1.2-0.2-2.4-0.6-3.4s-1-1.9-1.9-2.6s-2-1.1-3.6-1.2c-0.6-0.1-1.2,0.1-1.8,0.3
					c-0.6,0.3-1.2,0.6-1.8,1.1c-0.6,0.5-1.1,1-1.7,1.6c-0.5,0.6-1.1,1.3-1.6,1.9C271,88.2,270,90,269,92c0.1-1.6-0.1-3-0.5-4.3
					c-0.2-0.6-0.5-1.1-0.8-1.7c-0.3-0.5-0.8-1-1.3-1.5c-0.5-0.4-1.2-0.8-1.9-1.1c-0.8-0.3-1.7-0.5-2.7-0.5c-1-0.1-1.7,0-2.1,0.2
					c-0.5,0.2-0.7,0.6-0.7,1.3c0,0.3,0,0.6,0.2,0.8c0.1,0.2,0.3,0.4,0.4,0.7c0.1,0.3,0.3,0.7,0.4,1.2s0.1,1.3,0.1,2.3
					c0,0.7-0.1,1.6-0.2,2.9s-0.2,2.7-0.3,4.3c0,0.3,0,0.6,0,0.8c-0.4,1.2-0.8,2.4-1.2,3.8c-0.6,1.7-1.2,3.4-1.9,5.1
					c-0.7,1.7-1.4,3.3-2.1,4.8c-0.7,1.4-1.5,2.6-2.3,3.5s-1.6,1.3-2.3,1.3c-0.5,0-0.8-0.4-1-1.1s-0.3-1.7-0.3-2.8c0-1.2,0-2.5,0.1-4
					s0.3-3.1,0.5-4.7s0.4-3.2,0.7-4.8c0.2-1.6,0.5-3,0.7-4.3s0.4-2.4,0.6-3.3c0.1-0.9,0.2-1.5,0.2-1.8c0-0.6-0.1-1.1-0.4-1.7
					c-0.3-0.5-0.8-1-1.3-1.4s-1.1-0.7-1.7-0.9c-0.6-0.2-1.2-0.4-1.7-0.4s-0.9,0-1,0.1c-0.2,0.1-0.3,0.3-0.3,0.5s0,0.5,0.1,0.8
					s0.1,0.7,0.1,1c0,0.1-0.2,0.8-0.4,1.8c-0.3,1.1-0.7,2.4-1.2,3.9s-1,3.2-1.6,4.9c-0.6,1.7-1.2,3.3-1.9,4.8
					c-0.6,1.5-1.3,2.7-1.9,3.7c-0.6,1-1.2,1.5-1.8,1.4c-0.4,0-0.7-0.3-0.8-1c-0.1-0.6-0.1-1.5,0-2.5s0.2-2.1,0.4-3.3
					c0.2-1.2,0.4-2.4,0.7-3.6c0.2-1.2,0.4-2.3,0.6-3.3c0.2-1,0.3-1.8,0.3-2.3c0-0.6-0.2-1.1-0.6-1.7c-0.4-0.6-0.9-1.1-1.5-1.6
					s-1.2-0.9-1.9-1.2c-0.7-0.3-1.3-0.5-1.8-0.5c-0.6,0-1,0-1.2,0c-0.3,0-0.5,0.1-0.6,0.2s-0.1,0.2-0.1,0.3c0,0.1,0,0.3,0,0.4
					c0,0.2-0.1,0.8-0.2,1.7c-0.1,0.9-0.2,2-0.3,3.3c-0.1,0.9-0.2,1.8-0.2,2.8c-0.1,0.1-0.1,0.2-0.2,0.2c-0.8,0.7-1.7,1.4-2.8,1.9
					s-2.4,0.8-3.9,0.8c0.6-1.9,1.1-3.8,1.4-5.8c0.3-2,0.5-3.8,0.5-5.4s-0.2-3.1-0.7-4.4s-1.2-2.4-2-3.3s-1.8-1.6-2.9-2
					c-1.1-0.5-2.3-0.7-3.5-0.7s-2.4,0.2-3.6,0.6c-1.2,0.4-2.2,1-3.1,1.8c-0.9,0.8-1.6,1.7-2.2,2.8c-0.6,1.1-0.8,2.2-0.8,3.4
					c0,1.4,0.3,2.9,0.9,4.4c-1.2,1.2-2.2,2.5-3,3.9c-0.8,1.5-1.2,3-1.2,4.7c0,1.3,0.2,2.6,0.7,3.8c0.1,0.3,0.3,0.5,0.4,0.8
					c-0.5,2.2-1.1,4.5-1.6,6.8c-0.6,2.6-1.2,5-1.8,7.1s-1.2,3.9-1.7,5.2c-0.6,1.4-1,2.1-1.4,2.1s-0.6-0.5-0.6-1.6s0.1-2.5,0.2-4.2
					c0.2-1.7,0.4-3.7,0.7-6c0.3-2.2,0.5-4.5,0.7-6.8s0.3-4.6,0.3-6.8c0-2.2-0.2-4.2-0.5-6c-0.4-1.7-1-3.1-1.8-4.2s-2-1.6-3.6-1.6
					c-0.8,0-1.7,0.2-2.7,0.5c-0.9,0.3-1.8,0.6-2.6,0.9c-0.9,0.4-1.8,0.9-2.7,1.3c0.4-2.6,0.7-4.9,0.7-6.9c0-0.9,0-1.7-0.1-2.5
					s-0.2-1.6-0.4-2.2s-0.5-1.2-0.9-1.6s-0.9-0.6-1.6-0.6c-0.7,0-1.3,0.3-1.8,0.9s-1,1.3-1.4,2.1c-0.4,0.8-0.7,1.8-0.8,2.8
					c-0.2,1-0.3,2-0.2,2.9c0,0.7,0.1,1.5,0.2,2.4c0.1,0.8,0.3,1.6,0.6,2.3c0.3,0.7,0.7,1.3,1.1,1.8c0.4,0.5,1,0.7,1.7,0.7
					c0.5,0,0.9-0.1,1.4-0.2c0,0.1-0.1,0.1-0.1,0.1c-0.2,0.9-0.4,2.4-0.8,4.4c-0.4,2-0.8,4.2-1.3,6.7c-0.5,2.4-1,5-1.6,7.6
					s-1.1,5-1.6,7.1s-1.1,3.9-1.6,5.3s-1,2.1-1.3,2.1c-0.4,0-0.6-0.5-0.7-1.6c0-1.1,0-2.5,0.1-4.2s0.3-3.7,0.5-6
					c0.2-2.2,0.4-4.5,0.5-6.9c0.1-2.3,0.2-4.6,0.1-6.8c0-2.2-0.3-4.2-0.7-5.9c-0.4-1.7-1.1-3.1-1.9-4.1c-0.9-1-2.1-1.5-3.6-1.5
					c-0.8,0-1.7,0.2-2.6,0.5c-0.9,0.3-1.8,0.7-2.6,1c-0.9,0.5-1.8,0.9-2.6,1.4c0.3-2.6,0.5-4.9,0.5-7c0-0.9-0.1-1.7-0.2-2.5
					c-0.1-0.8-0.3-1.6-0.5-2.2s-0.6-1.2-1-1.5c-0.4-0.4-0.9-0.6-1.6-0.5c-0.7,0-1.3,0.4-1.8,0.9c-0.5,0.6-1,1.3-1.3,2.2
					c-0.4,0.9-0.6,1.8-0.8,2.8s-0.2,2-0.2,2.9c0,0.7,0.1,1.5,0.3,2.4C153.9,88.5,154.2,89.3,154.5,90z M319.2,85
					c0.4-2,0.8-4.1,1.4-6.2s1.3-4.3,2.2-6.3c0.9-2.1,1.9-3.9,3.1-5.5s2.6-2.8,4.2-3.7c1.6-0.9,3.4-1.2,5.4-0.9
					c0.6,0.1,1,0.3,1.3,0.7c0.2,0.4,0.4,0.8,0.4,1.2c0.1,0.5,0,1-0.1,1.7c-0.2,1.3-0.6,2.6-1.3,3.9c-0.7,1.3-1.4,2.7-2.4,4.1
					c-0.9,1.4-1.9,2.7-3.1,4c-1.1,1.3-2.2,2.6-3.3,3.8c-2.6,2.8-5.5,5.5-8.7,8.3C318.5,88.6,318.8,87,319.2,85z M301.2,93.6
					c0.9-1.4,1.9-2.6,3.1-3.6s2.4-1.7,3.7-2.2c1.3-0.5,2.4-0.7,3.4-0.6c-0.7,4.1-1.5,8.2-2.2,12.4c-1.1,0.9-2.3,1.6-3.4,2.3
					c-0.9,0.6-1.9,1-2.9,1.5c-1,0.4-1.9,0.6-2.6,0.5c-0.3,0-0.6-0.1-0.7-0.3c-0.2-0.2-0.3-0.5-0.3-0.9c-0.1-0.4,0-1,0-1.7
					c0.1-0.7,0.2-1.7,0.3-2.8C299.8,96.5,300.3,95,301.2,93.6z M217.1,103.9c-0.9,1.2-1.8,1.8-2.6,1.8s-1.5-0.3-2-0.9
					c-0.6-0.6-1-1.3-1.4-2.2c-0.4-0.9-0.6-1.8-0.8-2.9c-0.2-1-0.3-1.9-0.3-2.8c0-0.3,0-0.6,0-0.8c0-0.2,0-0.5,0.1-0.7
					c1.1,1,2.5,1.8,4,2.5s3.4,1.1,5.5,1.3C218.8,101.2,218,102.7,217.1,103.9z M208.3,82.2c0.5-0.8,1.1-1.5,1.8-2
					c0.7-0.6,1.5-1,2.3-1.2c0.8-0.3,1.6-0.4,2.3-0.4c1,0,1.9,0.1,2.7,0.4s1.4,0.6,2,1s1,0.9,1.4,1.4c0.3,0.5,0.6,1,0.9,1.6
					c0.5,1.2,0.7,2.6,0.6,4.2c0,1.5-0.2,3.2-0.7,5.2c-0.4,1.9-0.9,3.8-1.6,5.6c-2.2-0.2-4.1-0.7-5.6-1.5s-2.8-1.9-3.7-3.1
					c0.4-0.9,0.9-1.8,1.5-2.5s1.2-1.4,1.7-1.9c0.5-0.6,1-1,1.4-1.4s0.6-0.6,0.6-0.8c0-0.9-0.6-1.3-1.8-1.3c-0.8,0-1.7,0.2-2.8,0.6
					s-2.2,1-3.3,1.8c-0.2-1-0.4-2-0.4-2.8C207.6,84,207.8,83.1,208.3,82.2z M180.5,89.6c-0.4-0.2-0.8-0.6-1-1.1
					c-0.3-0.5-0.4-1.1-0.6-1.8c-0.1-0.7-0.2-1.4-0.2-2.2c0-0.7,0-1.4,0.1-2.2c0.1-0.8,0.3-1.5,0.5-2.2s0.5-1.2,0.8-1.7
					s0.6-0.7,0.9-0.7c0.4,0,0.8,0.2,1,0.5s0.4,0.8,0.6,1.4c0.1,0.6,0.2,1.2,0.2,1.9c0,0.7,0,1.5,0,2.2c-0.1,1.8-0.4,3.8-0.8,6
					C181.5,89.8,181,89.8,180.5,89.6z M155.3,83.4c0.1-0.8,0.2-1.5,0.4-2.2s0.4-1.3,0.7-1.7c0.3-0.5,0.6-0.7,0.9-0.7
					c0.4,0,0.8,0.1,1,0.5c0.3,0.3,0.5,0.8,0.6,1.4c0.2,0.6,0.2,1.2,0.3,1.9c0,0.7,0.1,1.5,0.1,2.2c-0.1,1.8-0.3,3.8-0.6,6
					c-0.6,0.2-1.1,0.2-1.6,0c-0.4-0.2-0.8-0.6-1-1.1c-0.3-0.5-0.5-1.1-0.6-1.8c-0.1-0.7-0.2-1.4-0.3-2.2
					C155.2,84.9,155.2,84.2,155.3,83.4z"/>
			</g>
			<g>
				<path class="st0" d="M133.9,177.9l2.9-1.9c0.1-0.1,0.3-0.3,0.4-0.4c1.2-1,2-2.3,2.6-3.7c1.2-2.3,2.2-4.7,3.1-7.1
					c0.3-0.8,0.5-1.6,0.9-2.4c0.7-1.4,1.1-2.9,1.6-4.4c1-3.2,2.2-7.5,2.6-13.8c0.2-1.2,0.4-2.4,0.5-3.5c0.1-0.5,0.1-1,0.1-1.5
					s0.4-1.1,1.1-1c0.3,0,0.5-0.1,0.9-0.1c0.3,0,0.4-0.5,0.2-0.7c-0.1-0.1-0.2-0.3-0.3-0.3l-1.9-0.8c-0.3-0.1-0.5-0.1-0.7-0.1
					c-0.5,0-1.1-0.1-1.6-0.1c-1.2,0-2.4,0.1-3.4,0.7c-0.3,0.2-0.5,0.4-0.7,0.7c-0.3,0.4-0.1,0.9,0.4,1.1c0.2,0.1,0.5,0.1,0.9,0.2
					c-0.1,0.4-0.1,0.6-0.1,0.9c-0.4,1.5-0.8,3-1.2,4.5c-0.2,0.7-0.3,1.4-0.5,2.1l-2,7.9c-0.1,0.5-0.1,0.9-0.7,1.4
					c-0.1-0.1-0.3-0.3-0.5-0.5c-1.2-1.9-2.1-3.9-3-6c-0.3-0.9-0.7-1.8-1.1-2.6l-0.8-2.1c-0.3-0.6-0.7-1.2-0.9-1.9
					c-0.3-1-0.7-1.8-0.8-2.9c0.4-0.1,0.7-0.2,1-0.2c0.5-0.1,0.7-0.5,0.8-0.8c0.1-0.4-0.1-0.5-0.4-0.7c-0.2-0.1-0.3-0.3-0.5-0.5
					c-0.3-0.1-0.5-0.3-0.7-0.3c-1.6-0.1-3.1,0-4.6,0.5c-0.4,0.1-0.8,0.3-1.2,0.5c-0.2,0.1-0.4,0.3-0.5,0.5c-0.3,0.3-0.2,0.8,0.3,0.9
					c0.5,0.1,1.1,0.1,1.6,0.1c0.3,0.5,0.5,0.9,0.9,1.3c0.8,0.9,1.2,2,1.6,3.1c0.4,0.9,0.8,2,1.2,3c0.9,2.6,2.2,5.1,3.7,7.5
					c1,1.8,2.1,3.6,2.8,5.5c0.3,0.5,0.3,1,0.1,1.6c-0.7,1.9-1.4,3.9-2.1,5.8c-0.7,2.2-1.8,4.1-2.8,6.2c-0.7,1.2-1.6,2.1-2.7,2.9
					c-1,0.7-1.6,0.5-1.8-0.7c-0.1-0.7-0.9-3-2-3c-0.5,0-0.5,0.4-0.7,0.7c-0.1,0.1-0.1,0.3-0.1,0.4c-0.5,1.4,0.1,2.8,1.3,3.7
					c1.4,0.9,2.8,1.2,4.4,1.4C132.2,178.7,133.1,178.5,133.9,177.9z"/>
				<path class="st0" d="M175.7,149.7c0.1-1,0-1.9,0-2.9c0-0.2,0-0.7-0.1-1.1c-0.3-1.4-0.7-2.7-1.3-3.9c-0.8-1.8-1.9-3.3-3.1-4.5
					c-3.5-4.1-10-2-12.7,1.3c-0.7,0.9-1.4,2-1.9,2.9c-1.1,1.6-1.9,3.2-2.4,5.2c-0.4,1-0.7,2.2-0.9,3.2l-0.2,1.2
					c-0.5,3.7-0.8,7.3-0.5,10.9c0.1,1.9,0.5,3.8,1.4,5.5c0.5,0.8,0.8,1.6,1.2,2.2c1.4,2.2,2.8,4.1,4.8,5.6c1,0.7,2.1,1.4,3.2,1.8
					c0.3,0.1,0.7,0.1,0.9,0.1c0.7-0.1,1.4-0.2,2-0.5c3.3-1.8,5.8-5.8,6-6.5c1.4-4.5,1.7-5.4,2-6.3c0.3-2.1,0.7-4.3,1.1-6.4
					C175.6,154.7,175.5,152.1,175.7,149.7z M171.2,152.5v0.9c0,2.4-0.1,4.9-0.5,7.1c-0.2,1.2-0.5,2.2-0.7,3.3
					c-0.3,1.6-0.8,3.1-1.3,4.7c-0.3,1-0.9,2.1-1.3,3.2c-0.4,0.9-1,1.7-1.8,2.2c-0.7,0.6-1.6,0.9-2.4,0.9c-0.5,0-0.9-0.3-1.2-0.9
					c-0.7-1.2-1.4-2.2-1.8-3.7c-0.3-0.9-0.4-1.7-0.5-2.6c-0.3-1.5-0.5-3.1-0.6-4.6c-0.1-0.3-0.1-0.9,0-1.3c0.1-1.4,0.2-2.8,0.1-4.2
					c-0.1-0.7,0-1.6,0.1-2.2c0-0.5,0.1-1,0.1-1.4c0-2.2,0.4-4.2,0.8-6.3c0.3-1,0.5-2.3,0.7-3.4c0.2-1.2,0.5-2.3,0.8-3.5
					c0.2-0.9,0.9-1.4,1.3-2.1l0.3-0.2c3.1-3.3,6.6,0.5,7.7,6.9c0.3,1.4,0.3,3,0.5,4.5C171.3,150.7,171.2,151.5,171.2,152.5z"/>
				<path class="st0" d="M185.3,138.6c0.6-0.9,0.5-1.6-0.7-1.9c-0.1,0-0.3,0-0.4-0.1c-0.5-0.1-4.1-0.1-5.1,0.1
					c-0.2,0.1-0.4,0.2-0.5,0.3c-0.3,0.1-0.5,0.5-0.3,0.8c0.2,0.5,0.5,1.1,1.2,1.2c0.9,0.3,1,0.9,1.1,1.8c-0.1,1.1-0.1,2.2-0.1,3.3
					l-0.2,7.9c-0.1,1.1-0.1,2.1-0.1,3.1c-0.1,2.1-0.1,4.1-0.1,6.1c0.1,3.5,0.9,6.9,2.5,10c0.7,1.7,1.7,3.2,3,4.4
					c6.4,6,13.6-5,14.5-7.8c0.9-2.4,1.9-4.7,2.2-7.3c0.2-1,0.5-2,0.6-3c0.1-0.6,0.1-1.2,0.2-1.8c0.1-1.6,0.8-15.5,0.7-17.1
					c-0.1-0.8,0.2-1.5,0.7-1.6c0.4-0.1,0.5-0.5,0.7-0.9c0.8-1.3-0.7-1.4-2.4-1.5c-1.1-0.1-6,0.7-6.4,0.9c-0.1,0-0.3,0.3-0.4,0.3
					c-0.1,0.1,0.1,0.4,0.2,0.5c0.3,0.3,0.7,0.4,1,0.7c0.5,0.3,0.9,0,0.9,0.5c-0.1,3.1,0,6-0.1,8.2c0,0.5-0.1,0.9,0,1.3
					c0.1,3.5,0,7.1-0.7,10.6c-0.5,2.8-1.6,9.1-3.3,11.6c-2.6,3.9-7.2,5.8-8.5,1.4c-0.7-2-1-4.2-1.1-6.4c0-1.6-0.1-3.2-0.2-4.7
					c-0.1-1.6-0.1-3.2,0-4.7c0.1-2.1,0.1-4.1-0.1-6.2c0-2-0.1-3.9-0.3-5.8c-0.1-1.4,0.3-2.4,1-3.6L185.3,138.6z"/>
				<path class="st0" d="M212.5,142.7c0,1.6-0.5,7.5-0.5,8.6c-0.1,1.4-0.3,2.7-0.3,3.9c-0.1,2.6-1.3,15.7-1.4,17.9v1.2
					c-0.7,0.3-1.1,0.4-1.6,0.5s-0.5,0.4-0.3,0.7c0.5,0.6,1.2,1.2,2.1,1.2c1.8-0.1,3.5,0.1,5.3,0.1c0.3-0.1,0.7-0.1,0.9-0.2
					c0.1-0.1,0.2-0.5,0.3-0.6c0.1-0.2,0-0.4-0.2-0.4c-0.1-0.1-0.1-0.3-0.3-0.3c-0.8-0.2-1.1-0.7-1-1.4c0.1-1.3,0.1-2.4-0.1-3.7
					c-0.2-2.2,0.6-10.4,0.5-11.3c0.1-0.2,0.1-0.5,0.1-0.7c0.2-1.4,0.2-2.6,0.3-3.8c0-0.7,0-1.4,0.2-2c1.7-0.4,1.3,0.1,3.1-0.3
					c0.3,0.1,0.9,0,1.3,0.2c1.4,1.7,2.3,3.9,2.8,5.8c0.1,0.8,0.4,1.8,0.5,2.6c0.3,1.8,0.3,4.5,0.5,6.5c-0.1,3.1,1,6.8,2.3,8.4
					c0.4,0.6,2.9,3.3,6.4,2c0.7-0.3,0.8-1.1,0.5-1.8c-0.4-0.3-0.8-0.9-1.1-1.3c-0.3,0.1-0.5,0.1-0.7,0.4c-0.5,0.3-0.7,0.4-1.2,0.4
					c-0.3,0.1-0.6-0.3-0.9-0.5c-0.3-0.7-0.5-1.4-0.7-2.2c-0.3-1.4-0.5-3-0.3-4.5c0.1-0.4,0.1-0.7,0.1-1.1c0-1.5-0.3-4.8-0.6-6.1
					c-0.5-1.5-0.9-2.9-1.4-4.3c-0.5-0.9-0.9-1.6-1.3-2.1c-0.9-1.2-1.8-2.2-2.8-3.2c-0.2-0.3-0.3-0.5-0.6-0.7
					c4.1-1.3,5.6-4.5,6.3-5.4c1-1.6,1.2-3.2,0.6-4.9l-0.2-0.8c-1.1-2.4-3-4.1-5.6-4.6c-2.1-0.3-4.2-0.4-6.1-0.3
					c-2.6,0.2-5,0.7-7.1,2c-0.7,0.3-1.4,0.7-1.9,1.2c-0.2,0.1-0.3,0.3-0.2,0.5c-0.1,0.2,0.3,0.4,0.4,0.4c0.4,0,0.9,0.1,1.2,0
					c0.9-0.2,1.8-0.3,2.7-0.5c0.2,0.1,0.1,0.5,0.1,0.8C212.8,140.3,212.5,141.5,212.5,142.7z M216.9,136.7c1.8-0.4,3.8-0.2,5.8-0.1
					c0.3,0,0.6,0.1,0.9,0.3c0.9,0.9,1.5,1.8,1.6,3.2c0.1,1.2,0.1,2.4-0.1,3.5c-0.4,1.4-1.4,2.7-2.4,3.7c-2.4,2.3-3.5,2.3-5.9,2.3
					c-0.1-0.6-0.1-1.2-0.1-1.8c0-0.5,0.1-1,0.1-1.5c0-0.8,0-1.6,0.1-2.6c0-1.4-0.1-5.9-0.5-6.5C216.4,136.9,216.5,136.9,216.9,136.7
					z"/>
				<path class="st0" d="M239.5,164c-0.2,0-0.5-0.1-0.7-0.1c-0.9,0.1-2,0.2-3,0.3c-0.1,0-0.6,0.2-0.8,0.3s-0.2,0.7,0,0.9
					c0.1,0.1,0.3,0.2,0.7,0.3c0.1,0.1,0.5,0.3,0.8,0.3c0,0.3,0,0.5-0.1,0.5c-0.1,0.7-0.1,1.2-0.1,1.9c0.1,0.5,0,1.2,0,1.8
					c0,0.2-0.1,0.5,0.1,0.6c0.2,1.8,1.1,3.9,2.6,5.1c3.1,2.6,7.3,2.8,10.1,1.2c1.9-0.9,3.3-2.4,4.3-4.1c0.5-0.9,0.9-2,1.3-3.1
					c0.6-2,0.7-3.9,0.7-5.9c0-1.5-0.3-2.9-0.8-4.3c-0.7-2.2-1.8-4-3.7-5.5c-1.1-0.8-2.2-1.6-3.6-2.1c-0.7-0.2-1.5-0.6-2.2-1.1
					c-0.5-0.7-1.1-1.4-1.8-2.2c-0.1-0.2-0.3-0.4-0.3-0.5c-0.2-0.6-0.7-1.4-0.8-2.1c-0.4-1.4-0.3-2.8,0.4-4.3
					c0.4-1.3,3.2-3.9,6.1-3.5c0.3,0.1,0.7,0.3,0.9,0.4l1.4,1.5c0.5,0.6,1.1,3,1.3,3.1c1.2,0.2,1.6,0.2,2.3-0.7l-0.7-2.2
					c0,0-0.1-0.1-0.1-0.2c-0.4-0.8-1-1.5-1.3-2c-4.3-4.5-8.2-4.4-12-0.7c-0.3,0.4-0.7,0.7-1,1c-1,0.7-1.6,3.5-1.6,3.9
					c-0.3,2-1.4,5.4,3.7,9.9c0.5,0.4,1.3,0.7,1.8,1.1c0.5,0.3,1,0.6,1.3,0.9c1.2,0.9,2.2,1.7,3.3,2.6c0.4,0.3,0.7,0.7,0.9,1.1
					c0.8,1.2,1.2,2.3,1.6,3.8c0.3,0.8,0.3,1.8,0.3,2.8c-0.1,1.6-0.7,3.2-1,4.7c-0.3,1.7-1.2,3.1-2.1,4.5c-0.3,0.6-0.8,1-1.3,1.6
					c-0.3,0.3-0.7,0.5-1.4,0.3s-1.4-0.3-2-0.8c-2.1-1.5-3.4-5.8-3.3-9.3c0-0.3,0.3-0.5,0.3-0.7C240.4,164.6,240.3,164.3,239.5,164z"
					/>
				<path class="st0" d="M275.6,141.9c0.2,0.1,0.3,0.5,0.5,0.6c0.8,0.9,1.6,0.9,1.9,0.1c0.1-0.1,0.1-0.3,0.1-0.5
					c0.1-1.2,0.3-2.4,0.5-3.6c0-0.2,0.1-0.4,0.1-0.7c-0.1-0.7-0.4-1.2-1-1.4c-0.6-0.1-1.2-0.2-1.7-0.3s-0.8-0.1-1.3-0.1l-8.2-0.1
					c-1-0.1-2-0.1-3,0.1c-0.5,0.1-1,0.1-1.6,0.2c-0.9,0.1-1.7,0.3-2.6,0.5c-0.3,0.2-0.6,0.5-0.7,0.8c-0.1,0.7,0,1.4,0.3,2
					c0.1,0.4,0.4,0.5,0.7,0.5c0.3,0,0.6-0.1,0.7-0.5c0.1-0.2,0.1-0.5,0.3-0.7c0.1-0.2,0.4-0.3,0.7-0.2c0.1,0.1,0.3,0.3,0.3,0.4
					c0,0.5-0.1,1.2-0.1,1.8c0.1,1.3-0.1,2.6-0.2,3.9c-0.2,3-0.3,6-0.5,9.1c-0.1,1.8-0.1,3.5-0.2,5.2c-0.3,4.6-0.5,9.2-0.3,13.6v1.2
					c0,0.3,0.4,0.7,0.1,1.2c-0.4,0.2-0.8,0.1-1.3,0.1h-1.4c-0.1,0-0.3,0.1-0.3,0.3c-0.1,0.3,0,0.6,0.1,0.8c0.3,0.1,0.5,0.3,0.7,0.3
					c1.4,0.5,3,0.8,4.5,0.8c1.6,0.1,3.2-0.1,4.8-0.2c0.9-0.1,1.8-0.1,2.7-0.2c0.5,0,0.9,0,1.4,0.1c1.5,0.2,3.1,0.1,4.5,0
					c0.3-0.1,0.6-0.1,0.8-0.4c0.4-0.4,0.7-1.1,0.8-1.7l0.2-2.2c0.1-0.6-0.1-0.9-0.6-1.3c-0.2-0.1-0.4-0.2-0.6-0.3
					c-0.3-0.2-0.7-0.1-0.9,0.3l-0.4,1.5c-0.1,0.5-0.4,0.7-0.8,0.8s-0.8,0.2-1.2,0.2l-2.3,0.2c-1.2,0-2.4,0.1-3.7,0.1
					c-0.6,0-1.2-0.1-1.8-0.2c-0.3-1.4-0.5-2.7-0.5-4.1c0-0.8,0.1-1.8,0.1-2.6c-0.1-3.1,0.3-6.1,0.5-9.1c0.1-0.3,0.1-0.7,0.5-0.9
					c0.6,0,1.3,0.2,2,0.3s1.4,0.1,2,0.1c0.1,0.3,0.2,0.3,0.2,0.4c0.2,1.3,0.9,1.8,1.8,2.4c0.5,0.5,1.1,0,1.1-0.7
					c0-0.3,0-0.6-0.1-0.9c0-1-0.1-1.8-0.2-2.7c-0.1-0.4-0.3-0.9-0.4-1.4c-0.2-0.5-0.5-0.7-1.1-0.9c-0.7-0.3-1.1,0.1-1.3,0.9v0.3
					c-0.1,0.3-0.3,0.5-0.4,0.6c-1.1,0.2-2.1,0.3-3.2,0.2c-0.4-0.1-0.6-0.3-0.6-0.9v-1c0.1-2.5,0.3-5,0.4-7.3
					c0.1-2.9,0.1-5.8-0.3-8.8c0,0,0-0.1,0.1-0.1c0.3-0.3,0.7-0.1,1.2-0.1l7.1,0.1c0.1,0,0.1,0.1,0.1,0.1c0.2,0.4,0.1,0.9,0,1.3
					C274.6,140.3,274.8,141.2,275.6,141.9z"/>
				<path class="st0" d="M283.8,175.8l-1,0.5c-0.3,0.1-0.7,0.4-0.9,0.6c-0.1,0.1-0.2,0.3-0.2,0.6c0.1,0.1,0.3,0.4,0.4,0.4
					c6.7,0,6.3-0.5,7.9-0.5c0.6,0,1.2-0.1,1.7-0.1h1.1c2,0.1,4-0.2,5.9-0.7c1.2-0.2,2.1-1,3-2c0.5-0.8,0.9-1.7,0.7-2.8
					c-0.1-0.3,0-0.7-0.1-1c0-0.6-0.3-0.9-0.7-1.3c-0.6-0.1-1.1,0-1.3,0.6c-0.2,0.3-0.4,0.6-0.5,0.9c-0.3,0.9-0.9,1.6-1.4,2.4
					c-0.3,0.4-0.7,0.7-1.2,0.9c-1.2,0.3-2.3,0.7-3.5,0.6c-1.2-0.1-3,0.1-4.5,0.2c-0.2-1.5-0.3-2.8-0.2-4.1c0-0.4,0.1-0.8,0.1-1.2
					c-0.1-3.2,0.1-6.2,0.5-9.2l0.2-1.6c0.2-2.7,0.4-5.3,0.7-7.9l0.4-5.4c0-0.8-0.1-1.7,0-2.5c0.1-1.6,0.2-3.1,0.3-4.8
					c0-0.1,0.1-0.3,0.1-0.4c0.7-0.3,1.4-0.3,2.1-0.3c0.4,0,0.6-0.5,0.9-0.7c0.1-0.2,0.1-0.6-0.1-0.7c-0.1-0.2-0.5-0.5-0.7-0.5
					c-1.2,0.1-2.2-0.3-3.4-0.1c-0.7,0.1-1.4,0-2.2,0h-1.6c-0.5,0.1-1.1,0.2-1.6,0.3c-0.1,0.1-0.3,0.3-0.3,0.5c0,0.1,0.2,0.4,0.3,0.5
					c0.5,0.3,0.9,0.5,1.4,0.7l0.1,0.9c0.2,1.3,0.2,2.6,0.1,3.9c-0.1,0.4-0.1,0.8-0.1,1.2c-0.1,1.5-0.1,3.2-0.3,4.8
					c-0.3,3.3-0.6,6.4-0.9,9.7c-0.3,4-0.7,8.2-0.7,12.3c0,1.6-0.1,3.1,0.3,4.5C284.3,175.4,284,175.7,283.8,175.8z"/>
				<path class="st0" d="M326.3,141.4c0.1-1.5-0.7-2.9-0.8-4.5c-0.3-3.4-3.7-2.2-4.3-2.1c-1.2,0.1-2.2,0.3-3.3,0.5
					c-0.7,0.1-1.4,0.1-2,0.3c-2.4,0.4-9.8,1.8-10.8,2c-0.3,0.1-0.6,0.3-0.8,0.4c-0.3,0.3-0.3,1.1,0,1.4c0.1,0.1,0.3,0.2,0.4,0.3
					c1,0.3,1.2,1,1.2,1.9c0,0.5,0,1.1-0.1,1.6c-0.1,3.1-0.1,6.1-0.1,9.2c0,0.7-0.1,1.4-0.1,2.1c0,2-0.1,4-0.2,6
					c-0.1,1.4-0.3,3-0.3,4.4c0,2.9,0.1,5.8,0.1,8.7l-0.2,0.7c-0.2,0.1-0.3,0.2-0.5,0.2c-0.1,0.1-0.3,0.1-0.5,0.1
					c-0.5,0.2-0.7,0.5-0.7,1.1c0.1,0.5,0.3,0.9,1,1c0.5,0.1,5.4,0.9,6,0.8c0.3-0.1,0.5-0.2,0.8-0.3c0.4-0.3,0.5-0.9,0.3-1.2
					c-0.4-0.5-1.2-0.3-1.4-1c0.4-1.5,0.5-3.1,0.6-4.6c0.1-2.4,0.2-5,0.3-7.4l0.2-1.6c0.9-0.5,1.8-0.5,2.6-0.6
					c0.7-0.1,1.5-0.1,2.2-0.3c1-0.1,2-0.2,3.1-0.4c0.6-0.1,1.2-0.2,1.8-0.5c0.3-0.1,0.6-0.5,0.7-0.7c0.3-1.2,0.1-2.3-0.3-3.5
					c-0.1-0.3-0.7-0.5-1.2-0.5c-0.3,0.1-0.5,0.3-0.6,0.5c-0.1,0.4-0.1,0.9-0.3,1.4c-0.1,0.6-0.5,0.9-1.3,1c-1.5,0.3-3.1,0.5-4.5,0.7
					c-0.4,0.1-0.9,0.1-1.3,0.2c-0.4,0-0.7-0.2-0.7-0.6c-0.1-0.5,0-1,0-1.5c0.2-3,0.1-5.9,0-8.9c-0.5-7.5-0.8-7.7-0.7-8.4
					c1.1-0.7,2.1-0.9,3.2-1.1c2.7-0.3,5.4-0.7,8.1-0.9c0.6-0.1,1,0.2,1.2,0.8l0.2,2.2c0.1,0.7,0.4,1.3,0.9,1.8
					c0.5,0.6,1.2,0.7,1.8,0.5c0.3-0.1,0.5-0.3,0.6-0.5C326.4,142,326.4,141.7,326.3,141.4z"/>
			</g>
			<g>
				<path class="st0" d="M241.7,261.1c0.9-1.4,1.4-2.9,1.7-4.4c0.1-0.3,0.1-0.5-0.1-0.6c-0.1-0.1-0.3-0.2-0.4-0.2
					c-0.2,0-0.4,0.1-0.6,0.2c-0.2,0.2-0.3,0.4-0.4,0.7c-0.3,1.5-0.9,2.8-1.7,4.1c-0.8,1.3-1.8,2.5-3,3.8s-2.6,2.6-4.2,4
					c-1.6,1.4-3.3,2.8-5.2,4.4c-1-2-2.1-3.9-3.3-5.8c-1.3-1.9-2.5-3.6-3.6-5.3c-1.1-1.7-2.1-3.2-2.9-4.7c-0.8-1.4-1.2-2.7-1.2-3.8
					c0-0.6,0.2-1.3,0.7-2c0.4-0.8,1-1.5,1.8-2.2c0.7-0.7,1.6-1.2,2.6-1.7s2-0.7,3-0.7c0.7,0,1.3,0.1,1.7,0.4
					c0.4,0.3,0.8,0.6,1.1,0.9c0.3,0.3,0.6,0.6,0.8,0.9c0.2,0.3,0.5,0.4,0.8,0.4c0.5,0,1-0.2,1.3-0.5s0.4-0.7,0.4-1.2s-0.2-1-0.7-1.6
					c-0.4-0.6-1.1-1.2-1.9-1.8c-0.8-0.6-1.8-1.1-3-1.5s-2.5-0.6-3.9-0.6c-1.5,0-3,0.3-4.5,0.8s-2.9,1.3-4.1,2.2
					c-1.2,0.9-2.3,1.9-3.1,3.1c-0.8,1.2-1.2,2.5-1.2,3.8c0,1.9,0.6,4,1.7,6c0.3,0.6,0.8,1.3,1.1,2c-0.4,0.7-0.9,1.4-1.5,2
					c-0.8,0.8-1.7,1.5-2.8,2.1s-2.4,0.9-3.9,0.9c0.6-2,1-4,1.3-6.1s0.4-4,0.4-5.7s-0.3-3.2-0.8-4.6c-0.5-1.3-1.2-2.5-2-3.4
					s-1.8-1.6-2.9-2.1c-1.1-0.5-2.2-0.7-3.4-0.7s-2.3,0.2-3.4,0.7c-1.1,0.5-2.1,1.1-3,1.9s-1.6,1.8-2.1,2.9
					c-0.5,1.1-0.8,2.3-0.8,3.5c0,1.4,0.3,3,0.9,4.7c-1.2,1.2-2.2,2.6-3,4.1s-1.2,3.1-1.2,4.9c0,1.3,0.2,2.5,0.6,3.7
					c-0.1,0.2-0.2,0.3-0.3,0.5c-1,1.8-2.1,3.4-3.2,4.9c-1.1,1.5-2.4,2.7-3.7,3.7s-2.6,1.4-4,1.4c-0.8,0-1.6-0.5-2.5-1.6
					s-1.7-2.4-2.4-4c-0.8-1.6-1.4-3.3-1.9-5.2c-0.5-1.8-0.7-3.5-0.7-5s0.2-3.2,0.5-5s0.8-3.5,1.4-5.1c0.6-1.6,1.4-2.9,2.3-4
					c0.9-1.1,2-1.6,3.1-1.6c1,0,1.7,0.3,2,1c0.4,0.7,0.6,1.5,0.6,2.4c0,0.5,0.1,0.8,0.2,1c0.2,0.1,0.3,0.1,0.5,0s0.3-0.4,0.5-0.7
					s0.2-0.8,0.2-1.2c0-0.5-0.1-1-0.3-1.5s-0.6-1-1-1.5s-1-0.8-1.6-1.1s-1.3-0.4-2.2-0.4c-1.4,0-2.9,0.4-4.5,1.3s-3.1,2.2-4.4,3.9
					c-1.4,1.7-2.5,3.8-3.4,6.2c-0.9,2.5-1.3,5.3-1.3,8.5c0,0.8,0.1,1.6,0.2,2.4c-0.4,1-0.9,2-1.3,3c-0.8,1.8-1.7,3.4-2.6,4.9
					c-0.9,1.5-1.8,2.7-2.8,3.6c-0.9,1-1.9,1.4-2.8,1.4c-1,0-1.7-0.4-2.1-1.2c-0.4-0.8-0.7-1.9-0.9-3.1c-0.1-1.3-0.2-2.7-0.1-4.2
					c0.1-1.5,0.2-2.9,0.4-4.3s0.3-2.5,0.5-3.5s0.3-1.6,0.3-1.9c0-0.4-0.1-0.9-0.3-1.5s-0.4-1.2-0.8-1.8c-0.3-0.6-0.7-1.1-1.2-1.5
					s-1.1-0.6-1.7-0.6c-0.6,0-1.1,0.3-1.6,0.8s-0.9,1.2-1.3,2.1c-0.1,0.2-0.2,0.4-0.2,0.6c-0.1,0.2-0.2,0.4-0.2,0.7
					c-0.3,0.7-0.6,1.7-1.1,2.8c-0.5,1.1-1,2.2-1.5,3.2s-1.1,1.9-1.6,2.7c-0.5,0.7-1,1.1-1.4,1.1c-0.5,0-0.9-0.4-1-1.1
					c-0.1-0.8-0.2-1.5-0.2-2.3c0-1.3,0.3-2.8,0.9-4.6c0.6-1.8,1.3-3.5,2.3-5.1c0.9-1.6,2-3,3.2-4.1s2.4-1.7,3.7-1.7
					c1,0,1.9,0.2,2.7,0.5c0.7,0.3,1.3,0.7,1.7,1s0.7,0.5,0.9,0.5s0.3-0.3,0.3-0.9c0-0.6-0.1-1.3-0.4-1.9c-0.3-0.7-0.7-1.2-1.2-1.8
					c-0.5-0.5-1.2-0.9-1.9-1.3c-0.8-0.3-1.6-0.5-2.5-0.5c-2.6,0-4.8,0.6-6.8,1.7c-2,1.2-3.6,2.6-4.9,4.2c-1.3,1.7-2.4,3.4-3.1,5.3
					c-0.7,1.9-1,3.5-1,4.9c0,1.2,0.2,2.4,0.6,3.5c0.3,0.9,0.7,1.7,1.2,2.4c-0.4,1.1-0.7,2.3-1.2,3.4c-0.7,2-1.5,3.9-2.4,5.6
					c-0.8,1.7-1.7,3-2.6,4.1s-1.7,1.6-2.6,1.6c-0.8,0-1.5-0.6-2.1-1.7s-1.1-2.6-1.5-4.5s-0.8-4-1-6.3c-0.3-2.3-0.5-4.7-0.6-7
					c-0.2-2.3-0.3-4.5-0.3-6.6c-0.1-2.1-0.1-3.8-0.1-5.2c0-2.9,0.2-5.8,0.6-8.8s0.9-5.8,1.4-8.6c0.7,0,1.5,0.1,2.3,0.2
					c0.7,0.1,1.4,0.2,2.2,0.2c0.8,0.1,1.7,0.2,2.5,0.3c0.3,0,0.5,0,0.7-0.1s0.3-0.3,0.3-0.5s0-0.4-0.1-0.6c-0.1-0.2-0.3-0.3-0.6-0.3
					c-0.9-0.2-2-0.3-3.1-0.4c-1.2-0.1-2.4-0.2-3.8-0.3c0.5-2.8,1-5.2,1.5-7.5c0.4-2.2,0.6-4,0.6-5.4c0-1.3-0.2-2.4-0.7-3.3
					c-0.4-0.9-1-1.6-1.6-2.2c-0.6-0.5-1.3-0.9-2-1.1c-0.7-0.2-1.2-0.3-1.7-0.3c-0.3,0-0.6,0.5-1.1,1.6c-0.4,1.1-0.9,2.5-1.4,4.4
					c-0.5,1.8-1,3.9-1.5,6.3c-0.5,2.4-1,4.8-1.4,7.4c-1.6,0.1-3,0.3-4.1,0.4c-1.1,0.2-2,0.4-2.8,0.6c-0.3,0.1-0.6,0.2-0.7,0.4
					s-0.2,0.3-0.2,0.5s0.1,0.3,0.3,0.5c0.2,0.1,0.4,0.2,0.6,0.1c0.8-0.2,1.6-0.3,2.4-0.3c0.8-0.1,1.5-0.2,2.2-0.2
					c0.7-0.1,1.4-0.1,2.1-0.1c-0.5,2.8-0.8,5.5-1.1,8.1c-0.3,2.6-0.4,5-0.4,7.1c0,3.1,0.2,6.2,0.5,9.2s0.8,5.9,1.4,8.6
					s1.3,5.2,2.1,7.5c0.8,2.3,1.7,4.3,2.6,6s1.9,3,2.9,3.9s2.1,1.4,3.1,1.4c1.5,0,2.9-0.6,4.3-1.8c1.3-1.2,2.6-2.8,3.7-4.7
					c1.1-1.9,2.1-4,2.9-6.3c0.4-1.1,0.8-2.2,1.1-3.3c0.3,0.3,0.6,0.6,0.9,0.8c0.7,0.5,1.4,0.8,2.1,0.8c1.2,0,2.3-0.4,3.2-1.3
					s1.8-1.9,2.6-3.1c0,2.2,0.3,4.3,0.7,6.1c0.4,1.8,1,3.4,1.7,4.7c0.7,1.3,1.6,2.3,2.6,3s2.2,1,3.5,1c1.4,0,2.7-0.5,4-1.6
					s2.5-2.4,3.6-4.1c1.1-1.6,2.2-3.5,3.1-5.5c0.3-0.7,0.6-1.3,0.9-2c0.1,0.3,0.1,0.5,0.2,0.8c0.6,1.9,1.5,3.6,2.7,5
					s2.6,2.7,4.2,3.6c1.6,0.9,3.5,1.4,5.4,1.4s3.7-0.5,5.3-1.5s3.2-2.3,4.5-3.9c1.4-1.6,2.6-3.3,3.7-5.2c0.3,0.6,0.7,1.1,1.2,1.6
					c0.9,0.9,1.9,1.7,3.2,2.2s2.7,0.8,4.4,0.8c1.1,0,2.2-0.2,3.1-0.7c0.9-0.5,1.8-1.1,2.5-1.9c0.8-0.8,1.4-1.8,2-2.8
					c0.6-1.1,1.1-2.2,1.5-3.5c1.9,0,3.5-0.3,4.9-1c1.3-0.7,2.5-1.5,3.4-2.4c0.5-0.5,0.9-1,1.3-1.6c0.6,1,1.3,2,2,3
					c1.5,2.2,3.1,4.3,4.8,6.4c1.6,2.1,3,4.2,4,6.1c-2.2,1.9-4,3.8-5.4,5.5s-2.1,3.4-2.1,4.8c0,2.4,0.5,4.3,1.5,5.6
					c1,1.4,2.4,2,4.1,2c1,0,2-0.4,3.1-1.1c1-0.7,2-1.7,2.8-2.9c0.9-1.2,1.5-2.6,2.1-4.2s0.8-3.3,0.8-5c0-1.2-0.2-2.5-0.5-3.7
					c-0.3-1.3-0.7-2.5-1.3-3.7c2-1.7,3.8-3.2,5.5-4.7s3.2-2.9,4.5-4.4C239.8,263.9,240.8,262.5,241.7,261.1z M198.8,271.4
					c-0.9,1.3-1.7,1.9-2.6,1.9c-0.8,0-1.5-0.3-2-0.9c-0.6-0.6-1.1-1.4-1.4-2.3c-0.4-0.9-0.7-1.9-0.8-3c-0.2-1.1-0.3-2-0.3-2.9
					c0-0.3,0-0.6,0-0.8c0-0.3,0-0.5,0.1-0.7c1.1,1,2.5,1.9,4,2.6s3.4,1.1,5.5,1.3C200.4,268.5,199.7,270.1,198.8,271.4z
					 M201.6,265.1c-2.2-0.2-4.1-0.7-5.6-1.5c-1.5-0.9-2.8-1.9-3.7-3.2c0.4-1,0.9-1.8,1.5-2.6c0.6-0.8,1.1-1.5,1.7-2
					c0.5-0.6,1-1.1,1.3-1.5c0.4-0.4,0.6-0.7,0.6-0.9c0-0.9-0.6-1.3-1.7-1.3c-0.8,0-1.7,0.2-2.7,0.7c-1,0.4-2.1,1.1-3.3,1.9
					c-0.2-1.1-0.3-2.1-0.3-3c0-1.1,0.2-2.1,0.7-3s1-1.6,1.7-2.2c0.7-0.6,1.4-1,2.2-1.3s1.5-0.4,2.2-0.4c1,0,1.9,0.1,2.6,0.4
					c0.8,0.3,1.4,0.6,1.9,1s1,0.9,1.3,1.5c0.3,0.5,0.6,1.1,0.9,1.6c0.5,1.3,0.7,2.8,0.7,4.4c0,1.6-0.2,3.4-0.6,5.4
					C202.7,261.3,202.2,263.2,201.6,265.1z M224.6,284.8c-0.2,0.9-0.5,1.8-0.9,2.7c-0.4,0.9-0.8,1.7-1.3,2.3c-0.5,0.7-1.1,1-1.7,1
					c-0.5,0-0.9-0.1-1.2-0.4s-0.6-0.6-0.8-1s-0.4-0.9-0.5-1.4s-0.1-1-0.1-1.5c0-1.1,0.5-2.3,1.6-3.7c1.1-1.4,2.5-2.9,4.2-4.5
					c0.7,1.5,1,2.9,1,4.1C224.9,283.1,224.8,283.8,224.6,284.8z"/>
			</g>
			<path class="st0" d="M243,275.7c0,0.9-0.1,1.7-0.4,2.4c-0.3,0.7-0.6,1.4-1.1,2c-0.4,0.6-0.9,1.1-1.3,1.5c-0.5,0.4-0.9,0.8-1.2,1
				c-0.2,0.2-0.5,0.2-0.6,0.2c-0.2,0-0.3-0.1-0.4-0.2c-0.1-0.1-0.1-0.3-0.1-0.5s0.2-0.4,0.4-0.6s0.5-0.5,0.8-0.7
				c0.3-0.3,0.6-0.5,0.9-0.8c0.3-0.3,0.5-0.6,0.7-0.9s0.3-0.6,0.3-0.9c-0.1,0.1-0.3,0.1-0.4,0.2c-0.3,0.1-0.5,0.2-0.8,0.2
				c-0.4,0-0.8-0.1-1.1-0.3c-0.3-0.2-0.6-0.5-0.8-0.9c-0.2-0.3-0.4-0.7-0.5-1.1s-0.2-0.7-0.2-1s0.1-0.6,0.2-1
				c0.1-0.4,0.3-0.8,0.6-1.2c0.3-0.4,0.6-0.7,1-0.9c0.4-0.2,0.9-0.4,1.5-0.4s1.1,0.1,1.4,0.4c0.4,0.3,0.6,0.6,0.8,1s0.3,0.8,0.3,1.3
				C243,274.9,243,275.3,243,275.7z"/>
			<g>
				<path class="st0" d="M281.2,239.7c0.9-0.1,1.5-0.4,2-0.7c0.3-0.1,0.5-0.5,0.3-0.8c-0.1-0.1-0.3-0.3-0.5-0.4
					c-0.9-0.3-2-0.2-3.1-0.1c-0.3,0.1-0.5,0.1-0.9,0.1c-1.2,0-2.2,0.4-3.4,0.6c-0.4,0.1-0.7,0.3-0.9,0.5c-0.3,0.3-0.2,0.8,0.2,0.9
					c0.2,0.1,0.4,0.1,0.6,0.1c0.4,0.1,0.5,0.3,0.6,0.8c-0.1,0.1-0.1,0.1-0.1,0.3c-0.5,11.7-0.5,13.1-0.4,14.3c-0.1,0.7,0,1.3,0,1.8
					c0,0.6-0.1,1.2,0,1.7c0.1,2.7-0.1,5.4-0.1,8c0,0.2-0.1,0.3-0.1,0.9l-0.5-0.8c-0.5-1-1-2.2-1.5-3.1c-0.3-0.7-0.5-1.6-0.9-2.3
					c-0.3-0.7-0.6-1.6-1-2.4c-0.5-1-2.8-6.7-3.7-8c-1.4-2.1-2.4-4.3-3.3-6.6c-0.6-1.8-1.5-3.3-2.4-5c-0.9-2-1.9-0.8-3.2-1.1
					l-2.7,0.2c-1,0-1.2,0.9-1.4,1.1c-0.5,0.7-0.1,1.7,1.1,1.6c0.3,0,0.5-0.1,0.7-0.1c0.5,0.1,0.7,0.3,0.7,0.7c0,1.1,0.1,2.2,0.1,3.2
					c0,3.2-0.1,6.4-0.3,9.6c-0.2,2.4-0.5,4.8-0.2,7.1l-0.1,0.3c-0.1,2-0.2,3.9-0.2,5.9c0,1.8-0.1,3.7-0.2,5.5c0,0.9,0,1.7-0.1,2.4
					c-0.5,0.4-1,0.7-1.3,1c-0.4,0.4-1.5,0.6-1.6,0.8c-0.1,0.2,0,0.6,0.2,0.7c0.2,0.2,0.5,0.2,0.7,0.2c0.3-0.1,0.7-0.2,1.2-0.3
					c0.8-0.2,1.6-0.2,2.5,0c1.2,0.3,2.2-0.3,2.2-1.6c0.1-1.2,0.3-2.1,0.1-3.3v-0.6c0.1-1.3,0.3-2.4,0.3-3.7c0.1-2.5,0.3-5,0.3-7.6
					c0.1-2.6,0.2-5.1,0.2-7.7c0.1-2.2,0.2-4.3,0.3-6.4c0-0.1,0.1-0.2,0.3-0.3c0.3,0.6,0.7,1.2,0.9,1.9c0.8,1.6,1.6,3.3,2.4,5
					c0.5,1.1,1,2.2,1.6,3.3c0.9,2,1.9,4,2.6,6.1l3.9,10.6c0.6,0.9,1.4,1.9,2.1,2.9c0.3,0.5,0.8,0.9,1.6,0.9c0.7,0.1,1.1-0.1,1.3-0.7
					c0.2-0.4,0.7-5.8,0.8-8.4c0-1.3-0.3-2.7,0.7-14.2l0.2-4.4c0-1.2-0.1-2.2-0.1-3.4c-0.1-0.5,0-0.9,0-1.4c-0.3-1.8,0.2-3.7-0.3-5.5
					C280,239.7,280.1,239.6,281.2,239.7z"/>
				<path class="st0" d="M306.7,265.5c0.3-2.1,0.7-4.3,1.1-6.4c0.4-2.6,0.3-5.2,0.5-7.6c0.1-0.9,0-1.9,0-2.9c0-0.2,0-0.7-0.1-1.1
					c-0.3-1.4-0.7-2.7-1.3-3.9c-0.8-1.8-1.9-3.3-3.1-4.5c-3.5-4.1-10-2-12.7,1.3c-0.7,1-1.4,2-1.9,2.9c-1.1,1.6-1.9,3.2-2.4,5.2
					c-0.4,1-0.7,2.2-0.9,3.2l-0.2,1.2c-0.5,3.7-0.8,7.3-0.5,10.9c0.1,1.9,0.5,3.8,1.4,5.5c0.5,0.8,0.8,1.6,1.2,2.2
					c1.4,2.2,2.8,4.1,4.8,5.6c1,0.7,2.1,1.4,3.2,1.8c0.3,0.1,0.7,0.1,0.9,0.1c0.7-0.1,1.4-0.2,2-0.5c3.3-1.8,5.8-5.8,6-6.5
					C306.1,267.3,306.4,266.5,306.7,265.5z M303.8,254.4v0.9c0,2.4-0.1,4.9-0.5,7.1c-0.2,1.2-0.5,2.2-0.7,3.3
					c-0.3,1.6-0.8,3.1-1.3,4.7c-0.3,1-0.9,2.1-1.3,3.2c-0.4,0.9-1,1.7-1.8,2.2c-0.7,0.6-1.6,1-2.4,1c-0.5,0-1-0.3-1.2-0.9
					c-0.7-1.2-1.4-2.2-1.8-3.7c-0.3-0.9-0.4-1.7-0.5-2.6c-0.3-1.5-0.5-3.1-0.6-4.6c-0.1-0.3-0.1-0.9,0-1.3c0.1-1.4,0.2-2.8,0.1-4.2
					c-0.1-0.7,0-1.6,0.1-2.2c0-0.5,0.1-1,0.1-1.4c0-2.2,0.4-4.2,0.8-6.3c0.3-1,0.5-2.3,0.7-3.4c0.2-1.2,0.5-2.3,0.8-3.5
					c0.2-0.9,0.9-1.4,1.3-2.1l0.3-0.2c3.1-3.3,6.6,0.5,7.7,6.9c0.3,1.4,0.3,3,0.5,4.5C303.9,252.5,303.8,253.4,303.8,254.4z"/>
				<path class="st0" d="M321.8,239.8c1.6-0.2,3.2-0.3,4.7-0.4c0.3-0.1,0.5,0,0.7,0c0.4,1.2,0.5,1.3,1.5,2c0.1,0.1,0.1,0.2,0.2,0.2
					c0.4,0.3,0.8,0.3,1.1-0.1c0.2-0.3,0.4-0.7,0.5-0.9c0-0.5,0.1-1.2,0.2-1.9c0-0.5-0.3-0.9-0.9-1l-0.5-0.2
					c-0.4-0.1-0.8-0.2-1.2-0.2c-0.3,0-0.7-0.1-1.2-0.1c-1.8,0.1-3.5,0.2-5.3,0.3c-0.1,0-0.3,0.1-0.4,0.1c-1.1,0.1-2.2,0.1-3.3,0.3
					c-0.6,0.1-1.2,0.1-1.8,0.3c-1.4,0.3-2.8,0.5-4,0.7c-0.6,0.1-1.2,0.2-1.7,0.4c-0.3,0.1-0.6,0.5-0.7,1c0.1,0.7,0,1.6,0.1,2.4
					c0,0.3,0.3,0.4,0.5,0.5c0.6,0.1,1.1-0.1,1.1-0.7c0.1-0.5,0.1-1.2,0.4-1.6c0.7-0.3,1.6-0.4,2.5-0.4c0.7,0,1.5-0.1,2.3,0.1
					c0.1,0.2,0.1,0.5,0.1,0.7c-0.1,1.4-0.3,2.8-0.2,4.1c0,1.4-0.3,2.8,0,4.1c0,0.1,0,0.3-0.1,0.5c0,0.7-0.1,1.6-0.1,2.4v1.4
					c-0.1,1.4-0.1,2.9-0.2,4.5c-0.1,1.3-0.3,2.5-0.3,3.8c-0.1,1.1-0.2,2.2-0.1,3.2c0,1.2,0.1,2.4,0.1,3.6c0.1,0.8,0.1,1.6,0.1,2.4
					c-0.1,0.9-0.1,2,0,2.9c0.2,0.5,0.1,0.9,0.1,1.4c0,0.3-0.3,0.5-0.6,0.6c-0.3,0-0.5,0.2-0.7,0.3c-0.2,0.1-0.6,0.1-0.9,0.1
					c-0.4,0.1-0.5,0.5-0.3,0.8c0.3,0.5,0.8,0.7,1.3,0.8c0.9,0.1,1.8,0.3,2.6,0.2c0.9,0,1.8-0.1,2.7,0.1c0.9,0.1,1.6-0.1,2-0.7
					c0.2-0.2,0.3-0.4,0.3-0.6c-0.1-0.3-0.3-0.4-0.6-0.5c-0.4,0-0.7,0.1-1,0.1c-0.4,0-0.5-0.2-0.6-0.5c0.2-1.4,0.3-2.6,0.1-4
					c0-0.1,0.1-0.3,0.1-0.5c0.1-0.7,0.1-1.5,0.1-2.2c0.1-0.7-0.1-1.4,0.1-2c0.1-1.4,0.1-2.6,0.3-3.9l0.3-3.7l0.2-3.5
					c0.1-0.2,0.1-0.5,0.1-0.7c0-0.6,0-1.2,0.1-1.8c0.1-1.4,0.2-2.6,0.3-4c0.2-2.4,0.3-4.7,0.3-7.2c-0.1-0.8-0.1-1.8-0.5-2.6V240
					C321.7,240,321.7,239.8,321.8,239.8z"/>
			</g>
			<g>
				<path class="st0" d="M217.3,299.4c-1-0.5-1.9-0.8-2.7-0.8s-1.2,0.3-1.2,0.9c0,0.4,0.1,0.9,0.2,1.5c0.1,0.6,0.3,1.2,0.5,1.8
					s0.5,1.1,0.9,1.6c0.4,0.4,0.9,0.7,1.4,0.7c0.6,0,1.1,0.1,1.7,0.3c0.6,0.2,1.1,0.3,1.6,0.4s0.8,0.1,1.1,0s0.5-0.5,0.5-1.1
					c0-1.2-0.4-2.3-1.2-3.3C219.2,300.6,218.3,299.9,217.3,299.4z"/>
				<path class="st0" d="M261.6,299.4c-1-0.5-1.9-0.8-2.7-0.8c-0.8,0-1.2,0.3-1.2,0.9c0,0.4,0.1,0.9,0.2,1.5s0.3,1.2,0.5,1.8
					c0.2,0.6,0.5,1.1,0.9,1.6c0.4,0.4,0.9,0.7,1.4,0.7c0.6,0,1.1,0.1,1.7,0.3c0.6,0.2,1.1,0.3,1.6,0.4s0.8,0.1,1.1,0
					c0.3-0.1,0.5-0.5,0.5-1.1c0-1.2-0.4-2.3-1.2-3.3C263.4,300.6,262.5,299.9,261.6,299.4z"/>
				<path class="st0" d="M326.6,319.6c-0.4,1.5-0.9,2.9-1.6,4.3c-0.7,1.3-1.4,2.6-2.1,3.8c-0.8,1.2-1.5,2.3-2.3,3.4
					c-0.8,1-1.5,2-2.2,2.9c-0.4-3.1-0.9-6-1.6-8.6s-1.5-4.8-2.3-6.6c-0.9-1.8-1.8-3.3-2.8-4.3s-1.9-1.5-2.9-1.5
					c-0.7,0-1.1,0.2-1.2,0.5c-0.2,0.3-0.2,0.7-0.2,1c0,0.1-0.2,0.7-0.5,1.6c-0.3,1-0.7,2.1-1.2,3.5s-1,2.9-1.6,4.5s-1.1,3.1-1.6,4.4
					c-0.5,1.4-1,2.5-1.4,3.4s-0.7,1.3-0.8,1.3c-0.6,0-0.9-0.5-1.2-1.5c-0.2-1-0.3-2.2-0.2-3.7c0-1.5,0.2-3.1,0.4-4.9
					c0.2-1.8,0.4-3.5,0.7-5.1c0.2-1.6,0.4-3,0.6-4.2s0.3-1.9,0.3-2.2c0-0.4-0.2-0.9-0.6-1.3c-0.4-0.5-0.9-0.8-1.5-1.2
					c-0.6-0.3-1.1-0.6-1.7-0.8c-0.6-0.2-1-0.3-1.3-0.3c-0.6,0-1,0.2-1.2,0.6s-0.3,0.9-0.3,1.3c0,0.2-0.1,0.8-0.4,1.8
					c-0.3,0.9-0.6,2-0.9,3.3c-0.3,1.2-0.6,2.5-0.9,3.9c-0.3,1.3-0.4,2.5-0.4,3.5c0,1.4,0.1,2.9,0.3,4.5c0.2,1.6,0.6,3.1,1.1,4.5
					c0.1,0.2,0.2,0.4,0.3,0.6c-0.1,0.3-0.2,0.7-0.4,1c-0.6,1.8-1.3,3.3-2,4.8c-0.7,1.4-1.5,2.6-2.2,3.5c-0.8,0.9-1.5,1.4-2.2,1.4
					s-1.3-0.5-1.8-1.5s-0.9-2.3-1.3-3.9s-0.7-3.4-0.9-5.4c-0.2-2-0.4-4-0.6-6c-0.1-2-0.2-3.9-0.3-5.7c-0.1-1.8-0.1-3.3-0.1-4.5
					c0-2.5,0.2-5,0.5-7.6c0.4-2.5,0.8-5,1.2-7.4c0.6,0,1.3,0.1,1.9,0.1c0.6,0.1,1.2,0.1,1.9,0.2c0.7,0.1,1.4,0.1,2.2,0.2
					c0.2,0,0.4,0,0.6-0.1s0.2-0.3,0.2-0.4c0-0.2,0-0.3-0.1-0.5c-0.1-0.1-0.3-0.2-0.5-0.3c-0.8-0.1-1.7-0.2-2.7-0.4
					c-1-0.1-2.1-0.2-3.3-0.3c0.5-2.4,0.9-4.5,1.2-6.4c0.4-1.9,0.5-3.5,0.5-4.7c0-1.1-0.2-2.1-0.6-2.8c-0.4-0.8-0.8-1.4-1.4-1.8
					c-0.6-0.5-1.1-0.8-1.7-1s-1.1-0.3-1.4-0.3c-0.2,0-0.5,0.5-0.9,1.4s-0.8,2.2-1.2,3.7c-0.4,1.6-0.9,3.4-1.3,5.4s-0.9,4.1-1.2,6.3
					c-1.4,0.1-2.6,0.2-3.5,0.4c-0.9,0.2-1.8,0.3-2.4,0.5c-0.3,0.1-0.5,0.2-0.6,0.3c-0.1,0.1-0.2,0.3-0.2,0.4c0,0.2,0.1,0.3,0.2,0.4
					s0.3,0.1,0.6,0.1c0.7-0.1,1.4-0.2,2-0.3c0.7-0.1,1.3-0.1,1.8-0.2c0.6-0.1,1.2-0.1,1.8-0.1c-0.4,2.4-0.7,4.7-1,7
					c-0.2,2.3-0.4,4.3-0.4,6.1c0,2.7,0.1,5.3,0.4,7.9l0,0c-0.3,0.9-0.7,1.8-1.2,2.8c-0.5,1.2-1.1,2.3-1.6,3.5s-1.2,2.3-1.8,3.3
					c-0.6,1-1.3,1.8-1.9,2.4c-0.7,0.6-1.3,0.9-1.9,0.9c-0.8,0-1.5-0.3-1.9-1s-0.7-1.5-0.8-2.6c-0.1-1.1-0.2-2.3-0.1-3.6
					c0.1-1.3,0.2-2.7,0.3-4c0.1-1.3,0.3-2.6,0.4-3.8c0.2-1.2,0.2-2.2,0.2-3c0-1.4-0.3-2.5-1-3.3s-1.4-1.3-2.2-1.6
					c-0.8-0.2-1.6-0.3-2.2,0c-0.7,0.2-1,0.7-1,1.3c0,0.6-0.1,1.5-0.2,2.6s-0.3,2.4-0.5,3.8s-0.3,2.8-0.5,4.2
					c-0.1,1.2-0.2,2.3-0.2,3.4c-0.3,0.4-0.6,0.8-0.9,1.2c-0.8,0.9-1.7,1.3-2.8,1.3c-0.7,0-1.3,0-1.9-0.1c-0.6-0.1-1.1-0.2-1.5-0.4
					c-0.5-0.1-0.9-0.3-1.3-0.5c0-0.5,0.1-0.9,0.1-1.4c0-0.4,0.1-0.8,0.1-1.2c0-0.4,0.1-0.8,0.1-1.2c0-1.3-0.1-2.6-0.2-3.9
					c-0.1-1.3-0.3-2.4-0.6-3.3s-0.8-1.7-1.3-2.3c-0.6-0.6-1.3-0.9-2.2-0.9c-0.7,0-1.3,0.2-1.7,0.5c-0.4,0.4-0.8,0.8-1,1.4
					c-0.3,0.6-0.4,1.3-0.5,2.1c-0.1,0.8-0.1,1.6-0.1,2.4c0,1.5,0.3,2.8,0.9,3.9c0.6,1.1,1.3,2,2.1,2.7s1.8,1.4,3.1,2
					c0,0.3-0.1,1-0.3,2.1s-0.5,2.4-0.8,3.8c-0.3,1.5-0.7,3-1.1,4.6s-0.9,3.1-1.3,4.4c-0.5,1.3-1,2.5-1.5,3.3c-0.5,0.9-1,1.3-1.6,1.3
					c-0.5,0-0.9-0.6-1.2-1.7s-0.6-2.5-0.8-4.2s-0.4-3.6-0.6-5.7c-0.1-2.1-0.3-4.1-0.3-6c-0.1-1.9-0.1-3.7-0.2-5.2
					c0-1.5-0.1-2.6-0.1-3.2c0-0.9-0.1-1.7-0.4-2.4c-0.3-0.7-0.7-1.2-1.2-1.7c-0.5-0.4-1.1-0.8-1.8-1s-1.4-0.3-2.2-0.3
					s-1.5,0-1.9,0.1s-0.8,0.3-1,0.7c-0.2,0.4-0.3,1.1-0.3,2.1s0,2.4,0,4.3c0,0.9,0,1.9,0,2.9c-0.1,0.1-0.1,0.2-0.1,0.3
					c-0.6,1.2-1.2,2.3-1.8,3.3s-1.3,1.8-1.9,2.4c-0.7,0.6-1.3,0.9-1.9,0.9c-0.8,0-1.5-0.3-1.9-1s-0.7-1.5-0.8-2.6s-0.2-2.3-0.1-3.6
					c0.1-1.3,0.2-2.7,0.3-4s0.3-2.6,0.4-3.8c0.2-1.2,0.2-2.2,0.2-3c0-1.4-0.3-2.5-1-3.3s-1.4-1.3-2.2-1.6c-0.8-0.2-1.6-0.3-2.2,0
					c-0.7,0.2-1,0.7-1,1.3c0,0.6-0.1,1.5-0.2,2.6c-0.1,1.1-0.3,2.4-0.5,3.8s-0.3,2.8-0.5,4.2c-0.1,1.5-0.2,2.8-0.2,4
					s0.2,2.4,0.5,3.7c-0.2,0.5-0.3,1-0.5,1.6c-0.6,1.8-1.3,3.3-2,4.8c-0.7,1.4-1.5,2.6-2.2,3.5c-0.8,0.9-1.5,1.4-2.2,1.4
					s-1.3-0.5-1.8-1.5s-0.9-2.3-1.3-3.9c-0.4-1.6-0.7-3.4-0.9-5.4s-0.4-4-0.5-6s-0.2-3.9-0.3-5.7c-0.1-1.8-0.1-3.3-0.1-4.5
					c0-2.5,0.2-5,0.5-7.6c0.3-2.5,0.8-5,1.2-7.4c0.6,0,1.3,0.1,1.9,0.1c0.6,0.1,1.2,0.1,1.9,0.2s1.4,0.1,2.2,0.2
					c0.2,0,0.4,0,0.6-0.1s0.2-0.3,0.3-0.4c0-0.2,0-0.3-0.1-0.5c-0.1-0.1-0.3-0.2-0.5-0.3c-0.8-0.1-1.7-0.2-2.7-0.4
					c-1-0.1-2.1-0.2-3.3-0.3c0.5-2.4,0.9-4.5,1.2-6.4c0.4-1.9,0.5-3.5,0.5-4.7c0-1.1-0.2-2.1-0.6-2.8c-0.4-0.8-0.8-1.4-1.4-1.8
					c-0.5-0.5-1.1-0.8-1.7-1c-0.6-0.2-1.1-0.3-1.4-0.3c-0.2,0-0.5,0.5-0.9,1.4s-0.8,2.2-1.2,3.7c-0.4,1.6-0.9,3.4-1.3,5.4
					c-0.4,2-0.9,4.1-1.2,6.3c-1.4,0.1-2.6,0.2-3.5,0.4c-0.9,0.2-1.8,0.3-2.4,0.5c-0.3,0.1-0.5,0.2-0.6,0.3c-0.1,0.1-0.2,0.3-0.1,0.4
					c0,0.2,0.1,0.3,0.2,0.4c0.1,0.1,0.3,0.1,0.5,0.1c0.7-0.1,1.4-0.2,2-0.3c0.7-0.1,1.3-0.1,1.8-0.2c0.6-0.1,1.2-0.1,1.8-0.1
					c-0.4,2.4-0.7,4.7-1,7c-0.2,2.3-0.4,4.3-0.4,6.1c0,2.7,0.1,5.3,0.4,7.9c0.2,1.9,0.5,3.8,0.8,5.6c-0.5,1.2-1,2.3-1.5,3.6
					c-0.7,1.5-1.5,2.9-2.2,4.2c-0.8,1.2-1.6,2.3-2.4,3.1c-0.8,0.8-1.6,1.2-2.4,1.2c-0.8,0-1.4-0.4-1.8-1.1c-0.4-0.7-0.6-1.6-0.7-2.7
					c-0.1-1.1-0.1-2.3,0-3.6c0.1-1.3,0.2-2.5,0.3-3.7s0.3-2.2,0.4-3s0.2-1.4,0.2-1.6c0-0.3-0.1-0.8-0.2-1.3s-0.4-1.1-0.6-1.6
					c-0.3-0.5-0.6-1-1.1-1.3c-0.4-0.4-0.9-0.5-1.5-0.5c-0.5,0-1,0.2-1.4,0.7c-0.4,0.4-0.8,1.1-1.1,1.8c-0.1,0.2-0.1,0.3-0.2,0.5
					c-0.1,0.2-0.1,0.4-0.2,0.6c-0.2,0.6-0.5,1.4-0.9,2.4c-0.4,0.9-0.8,1.9-1.3,2.8s-0.9,1.7-1.4,2.3c-0.5,0.6-0.9,0.9-1.2,0.9
					c-0.5,0-0.8-0.3-0.9-1s-0.2-1.3-0.2-2c0-1.1,0.3-2.4,0.7-3.9c0.5-1.5,1.2-3,2-4.4s1.7-2.6,2.8-3.5c1-1,2.1-1.5,3.1-1.5
					c0.9,0,1.7,0.2,2.3,0.5s1.1,0.6,1.5,0.8c0.4,0.3,0.6,0.4,0.8,0.4s0.2-0.2,0.2-0.7s-0.1-1.1-0.4-1.6c-0.2-0.6-0.6-1.1-1-1.5
					s-1-0.8-1.6-1.1s-1.4-0.4-2.2-0.4c-2.2,0-4.1,0.5-5.8,1.5s-3.1,2.2-4.2,3.6c-1.1,1.4-2,2.9-2.6,4.5s-0.9,3-0.9,4.2
					c0,0.7,0.1,1.4,0.3,2.1c-0.1,0.2-0.2,0.3-0.2,0.5c-1.4,2.4-3.3,4.6-5.7,6.6c-0.1-4.7-0.5-8.5-1.2-11.5s-1.6-5.3-2.8-6.9
					c-1.2-1.7-2.6-2.8-4.3-3.4s-3.6-0.9-5.8-0.9c-1.3,0-2.5,0.4-3.6,1.2c-1.1,0.8-2.1,1.8-3,3.1c-0.8,1.3-1.5,2.8-2,4.4
					s-0.7,3.2-0.7,4.8c0,1.8,0.1,3.3,0.3,4.6c-0.6,1.1-1.3,2.2-2,3.1c-0.8,1.1-1.7,2-2.7,2.7s-2,1.1-3,1.1c-0.6,0-1.1-0.1-1.5-0.3
					c-0.5-0.2-0.9-0.5-1.2-0.9c-0.4-0.4-0.7-0.8-1-1.2c-0.3-0.5-0.6-0.9-0.8-1.4c-0.5-1.1-1-2.4-1.3-3.9c1.7-0.8,3.2-1.7,4.5-2.7
					c0.6-0.4,1.1-0.8,1.7-1.3c0.6-0.5,1-1,1.4-1.5s0.8-1.1,1-1.7s0.4-1.2,0.4-1.8c0-0.7-0.1-1.3-0.3-2c-0.2-0.6-0.4-1.2-0.8-1.7
					c-0.3-0.5-0.8-0.9-1.3-1.2c-0.5-0.3-1.2-0.5-1.9-0.5c-1.3,0-2.5,0.3-3.8,1c-1.3,0.6-2.5,1.5-3.5,2.7c-1,1.1-1.9,2.5-2.6,4
					s-1,3.2-1,5s0.2,3.4,0.7,4.9c0.1,0.2,0.2,0.4,0.3,0.7c-0.4,1.1-0.7,2.2-1.1,3.4c-0.7,2.2-1.4,4.2-2.1,6s-1.4,3.3-2.1,4.5
					s-1.2,1.7-1.7,1.7c-0.6,0-1-0.6-1.1-1.7c-0.2-1.1-0.2-2.6-0.1-4.4s0.3-3.9,0.6-6.1c0.3-2.3,0.6-4.5,0.8-6.8
					c0.3-2.2,0.5-4.4,0.8-6.4c0.2-2,0.3-3.6,0.3-4.9c0-1.1-0.1-2.2-0.2-3.3c-0.1-1.1-0.4-2.1-0.8-3s-1-1.6-1.7-2.2
					c-0.8-0.6-1.8-0.8-3-0.8c-0.5,0-1,0.1-1.5,0.4s-1,0.7-1.4,1.1c-0.4,0.5-0.9,1-1.3,1.6s-0.8,1.2-1.2,1.8c-0.9,1.5-1.6,3.1-2.3,5
					c0-1.4-0.3-2.7-0.7-3.8c-0.2-0.5-0.5-1-0.8-1.4c-0.3-0.5-0.7-0.9-1.2-1.2c-0.5-0.4-1-0.7-1.7-0.9c-0.6-0.2-1.4-0.3-2.3-0.3
					c-0.8,0-1.4,0.1-1.7,0.3c-0.4,0.2-0.6,0.6-0.6,1.2c0,0.3,0.1,0.5,0.2,0.7s0.2,0.4,0.4,0.6c0.1,0.2,0.3,0.6,0.4,1.1
					s0.2,1.1,0.2,2c0,0.6,0,1.5-0.1,2.6c0,1.2,0,2.4,0,3.8s0.1,2.8,0.2,4.3s0.3,2.8,0.6,4c0.3,1.2,0.6,2.2,1.1,2.9
					c0.4,0.8,1,1.2,1.7,1.2c1.3,0,2.2-0.2,2.7-0.7s0.8-0.9,0.8-1.5c0-1.2,0.1-2.7,0.4-4.3c0.2-1.6,0.5-3.3,0.9-5s0.8-3.4,1.3-5.1
					s1.1-3.2,1.6-4.5c0.6-1.3,1.1-2.4,1.7-3.2c0.6-0.8,1.1-1.2,1.7-1.2c0.5,0,0.7,0.6,0.8,1.7c0.1,1.1,0.1,2.7,0,4.5
					c-0.1,1.9-0.2,4-0.4,6.4c-0.2,2.4-0.4,4.9-0.5,7.4s-0.2,5-0.1,7.4c0,2.4,0.2,4.5,0.6,6.4s1,3.4,1.8,4.5c0.8,1.2,1.9,1.7,3.3,1.7
					c0.5,0,1-0.4,1.6-1.1s1.1-1.7,1.7-2.9c0.6-1.2,1.2-2.6,1.8-4.2c0.6-1.6,1.2-3.2,1.8-5c0.3-1,0.6-1.9,0.9-2.9
					c0.3,0.4,0.5,0.9,0.8,1.3c0.9,1.1,1.9,1.9,3.2,2.5c1.3,0.6,2.7,0.9,4.2,0.9s2.8-0.4,4.1-1.2c1.3-0.8,2.5-1.8,3.5-3.1
					c0.8-1,1.6-2.1,2.3-3.2c0.2,1,0.5,2,0.9,2.7c0.5,0.9,1.1,1.6,1.8,2.1c0.7,0.4,1.5,0.6,2.4,0.6c0.8,0,1.6-0.3,2.4-0.8
					c0.8-0.5,1.6-1.3,2.3-2.1c0.7-0.9,1.4-1.9,2-3s1.2-2.2,1.7-3.4c0.5-1.1,1-2.3,1.4-3.3c0.4-1.1,0.7-2,1-2.8
					c0.2,1.9,0.2,4,0.1,6.2c-0.1,2.2-0.1,4.2-0.1,6c0,2,0,4-0.1,6c-2.3,1.7-4.5,3.4-6.6,5s-4.1,3.3-5.7,4.9c-1.7,1.7-3,3.4-4,5.1
					s-1.5,3.5-1.5,5.4c0,1.7,0.2,3.3,0.6,4.7c0.4,1.4,1,2.7,1.8,3.7s1.7,1.9,2.9,2.4c1.1,0.6,2.4,0.9,3.8,0.9c2.5,0,4.8-0.8,6.8-2.3
					c2-1.6,3.6-3.8,5-6.8c1.3-2.9,2.3-6.6,3-10.8c0.7-4.3,1-9.1,1-14.5v-1.7c2.6-2.2,4.8-4.5,6.4-7c0.3,0.7,0.7,1.4,1.1,2
					c0.5,0.7,1.1,1.3,1.7,1.8c0.6,0.4,1.2,0.6,1.8,0.6c1,0,2-0.4,2.8-1.1s1.6-1.6,2.2-2.7c0,1.9,0.2,3.7,0.6,5.3
					c0.4,1.6,0.9,2.9,1.5,4s1.4,2,2.3,2.6c0.9,0.6,1.9,0.9,3,0.9c1.2,0,2.3-0.5,3.4-1.4c1.1-0.9,2.1-2.1,3.1-3.5s1.9-3,2.7-4.7
					c0.4-0.9,0.8-1.7,1.2-2.6c0.5,2.1,1,4.1,1.6,5.9c0.7,2,1.4,3.7,2.2,5.1s1.6,2.6,2.5,3.4s1.8,1.2,2.7,1.2c1.3,0,2.5-0.5,3.7-1.6
					c1.1-1.1,2.2-2.4,3.1-4c0.9-1.6,1.8-3.4,2.5-5.4c0.1-0.2,0.1-0.4,0.2-0.5c0.2,0.4,0.4,0.8,0.6,1.2c0.6,1.1,1.3,1.9,2.2,2.6
					c0.8,0.7,1.8,1,2.8,1c1.2,0,2.3-0.4,3.3-1.2s2.1-1.8,3-3c0.9-1.1,1.7-2.4,2.4-3.8c0.1,2,0.3,4,0.6,6c0.3,2.1,0.7,4.1,1.2,6
					s1.2,3.6,2,5.1s1.9,2.7,3.1,3.6s2.6,1.3,4.3,1.3c0.8,0,1.5-0.4,2.2-1.3s1.3-1.9,1.9-3.3c0.6-1.3,1.1-2.9,1.6-4.6s0.9-3.4,1.3-5
					c0.4-1.7,0.7-3.2,0.9-4.7s0.4-2.7,0.6-3.7c0.6,0.2,1.1,0.4,1.6,0.5s1,0.2,1.6,0.4c0.6,0.1,1.2,0.1,1.9,0.1
					c0.9,0,1.8-0.2,2.5-0.7c0.5-0.3,0.9-0.7,1.4-1.1c0.1,0.7,0.2,1.4,0.4,2.2c0.3,1.3,0.8,2.5,1.4,3.5c0.6,1.1,1.3,1.9,2.2,2.6
					c0.8,0.7,1.8,1,2.8,1c1.2,0,2.3-0.4,3.3-1.2s2.1-1.8,3-3s1.8-2.6,2.6-4.1c0.8-1.5,1.5-3,2.1-4.4c0.2-0.6,0.4-1.1,0.7-1.6
					c0.2,1.6,0.5,3.2,0.8,4.7c0.5,2.3,1.1,4.5,1.8,6.5c0.7,2,1.4,3.7,2.2,5.1c0.8,1.4,1.6,2.6,2.5,3.4s1.8,1.2,2.7,1.2
					c1.3,0,2.5-0.5,3.7-1.6c1.1-1.1,2.2-2.4,3.1-4s1.8-3.4,2.5-5.4c0.1-0.2,0.1-0.4,0.2-0.5c0.3,0.4,0.5,0.8,0.8,1.1
					c0.9,0.9,2,1.4,3.4,1.4c0.7,0,1.4-0.3,2-0.9s1.3-1.3,1.9-2.3c0.6-0.9,1.2-2,1.7-3.2s1-2.5,1.5-3.7c1.1-3,2-6.3,2.9-10.1
					c0.7,1.2,1.4,2.9,2,5.1c0.5,1.9,1,4.3,1.4,7.4s0.6,6.9,0.6,11.5v0.4c-2.1,2.2-4.1,4.4-6.2,6.5s-3.9,4.2-5.6,6.2
					c-1.6,2-3,3.9-4,5.8s-1.5,3.6-1.5,5.3c0,1.5,0.2,2.8,0.5,3.9c0.3,1.2,0.8,2.2,1.4,3s1.3,1.5,2.1,1.9c0.8,0.5,1.8,0.7,2.8,0.7
					c2.1,0,4.2-0.7,6.3-2.1c2.1-1.4,3.9-3.3,5.5-5.8s2.9-5.4,3.9-8.9c1-3.4,1.5-7.2,1.5-11.3c0-1.8,0-3.5-0.1-5.2s-0.2-3.3-0.4-4.9
					c0.7-0.9,1.5-1.9,2.4-2.9c0.9-1.1,1.7-2.2,2.5-3.4c0.8-1.2,1.6-2.6,2.3-4.2c0.7-1.5,1.4-3.2,1.9-5.1c0.2-0.5,0.1-0.9-0.3-1
					C327,319,326.8,319.1,326.6,319.6z M124.1,322.2c0.1-0.6,0.3-1.2,0.6-1.8c0.3-0.6,0.6-1.1,1-1.6c0.4-0.4,0.9-0.8,1.5-1.1
					c0.6-0.3,1.3-0.4,2.1-0.4c0.7,0,1.1,0.3,1.4,0.8c0.3,0.5,0.4,1.1,0.4,1.8c0,1-0.4,1.9-1.2,2.7c-0.8,0.9-1.6,1.6-2.6,2.3
					c-1.1,0.8-2.3,1.5-3.7,2.1C123.6,325.2,123.7,323.6,124.1,322.2z M152,320.4c-0.4,1.1-0.9,2.3-1.4,3.6c-0.5,1.2-1,2.5-1.6,3.7
					c-0.5,1.2-1.1,2.3-1.7,3.3c-0.6,1-1.1,1.8-1.6,2.4s-1,0.9-1.4,0.9s-0.8-0.5-1-1.5s-0.3-2.2-0.3-3.7s0.1-3.1,0.3-4.8
					c0.2-1.7,0.6-3.3,1.1-4.8s1.1-2.7,1.9-3.7c0.8-1,1.7-1.5,2.7-1.5c1.1,0,1.9,0.3,2.5,0.9s1.1,1.4,1.5,2.3
					C152.8,318.3,152.4,319.3,152,320.4z M152.5,351.3c-0.5,3.3-1.2,6.2-2.1,8.7c-0.9,2.5-2,4.6-3.2,6.1c-1.3,1.5-2.8,2.3-4.5,2.3
					c-0.8,0-1.5-0.2-2.2-0.7c-0.6-0.5-1.2-1.2-1.6-1.9s-0.8-1.7-1-2.6c-0.2-1-0.4-1.9-0.4-2.8c0-1.7,0.4-3.3,1.3-4.9
					c0.9-1.6,2.1-3.2,3.6-4.7c1.5-1.6,3.2-3.1,5.1-4.7s4-3.1,6.1-4.7C153.4,344.7,153,348.1,152.5,351.3z M246.4,326.5
					c0,0.4-0.1,0.8-0.1,1c0,0.3-0.1,0.5-0.1,0.6c-1-0.5-1.8-1-2.4-1.6c-0.6-0.6-1.1-1.3-1.6-2.2c-0.5-0.9-0.8-2-0.8-3.4
					c0-0.5,0-1,0.1-1.6s0.2-1.2,0.3-1.7c0.2-0.5,0.3-0.9,0.6-1.3c0.2-0.4,0.6-0.5,1-0.5c0.8,0,1.4,0.3,1.8,1
					c0.4,0.6,0.8,1.4,0.9,2.3c0.2,0.9,0.3,1.9,0.4,2.9c0,1,0.1,1.9,0.1,2.7C246.4,325.6,246.4,326.1,246.4,326.5z M311.4,354
					c-0.5,3.2-1.2,5.9-2.1,8.1s-1.9,3.8-3.1,4.9s-2.5,1.7-3.9,1.7c-1.2,0-2.1-0.4-2.8-1.3c-0.7-0.9-1.1-2.3-1.1-4.2
					c0-1.5,0.4-3,1.2-4.5c0.8-1.6,1.9-3.2,3.2-4.9c1.3-1.7,2.8-3.4,4.5-5.2s3.4-3.7,5.2-5.6C312.2,347.1,311.9,350.8,311.4,354z"/>
			</g>
		</g>
	</g>
	<g>
		<path class="st2" d="M123,183.7c-2.6-3.5-5.6-6.7-9.1-9.3c-1.5-1.7-3.2-3.3-4.9-4.8c-4.8-3.9-10.5-6.4-16.7-6.6
			c-2.8-0.1-5.6,0.2-8.3,0.8c-1.7,0.2-3.3,0.7-4.8,1.4c-0.6,0.2-1.1,0.4-1.7,0.6c-0.8-0.4-1.8-0.3-2.9,0.1c-0.9,0.4-1.6,1-2.2,1.6
			c-0.9,0.2-1.4,0.7-1.7,1.3c-0.6,0.3-1.1,0.6-1.7,0.9c-0.8-0.4-1.6-0.5-2.6-0.2c-0.8,0.3-1.4,0.8-1.9,1.5c-0.1,0.2-0.2,0.3-0.3,0.5
			c-0.2,0.4-0.3,0.9-0.3,1.3c-0.7,0.4-1.3,0.9-1.9,1.3c-0.2-0.1-0.4-0.1-0.4-0.1c-0.9-0.1-1.5,0.1-2.3,0.5c-1.2,0.6-1.9,1.3-2.1,2.3
			c-1.1,0-2.1,0.3-3,1.1c-1.7,1.4-1.4,2.5-0.7,3.7c-0.7,0.8-1.4,1.6-2,2.4c-0.3,0.3-0.5,0.5-0.6,0.7c-1.5,2-2.7,4.1-3.8,6.3
			c-4.2,9.2-3.3,21,2.9,29.3c1.1,1.4,2.6,2.4,4.2,3c0.1,0.1,0.2,0.1,0.3,0.1s0.1,0,0.2,0c2.9,0.9,6.1,0.6,8.7-0.9
			c2.3-0.8,4.6-2,7-3.1c4.4-2,8.9-3.8,13.3-5.9c11.8-5.7,23.8-12.1,34.5-19.7c1.8-1.3,6.2-3.6,6.7-6.1
			C125.5,186.5,124,185,123,183.7z M101.8,168.3c-1.5-0.4-2.9-0.7-4.4-0.8c-0.5-0.4-1-0.5-1.5-0.4c-0.7-0.6-1.5-1.2-2.3-1.6
			C96.5,165.9,99.2,166.9,101.8,168.3z M87.6,165.2c0.2,0,0.5,0.1,0.7,0.2c-0.3,0.1-0.5,0.2-0.7,0.3c-1-0.1-2,0-2.9,0.1l-0.1-0.1
			c-0.2-0.2-0.4-0.4-0.7-0.6C85.1,165,86.3,165,87.6,165.2z M80,169.6l0.1-0.1c1-1.1,1.4-2.5,2-1.3c0.1,0.2,0.2,0.5,0.3,0.8
			c-0.3,0.1-0.6,0.2-0.8,0.2C81.1,169.4,80.6,169.5,80,169.6c0,0.1-0.1,0.2-0.2,0.2c-0.1,0-0.2,0.1-0.3,0.1
			C79.7,169.8,79.8,169.7,80,169.6z M73.4,171.5c0.3-0.6,0.6-1.2,0.8-1.7c0.1-0.3,0.2-0.5,0.3-0.7c0.2-0.4,0.3-0.6,0.4-0.8
			s0.2-0.3,0.2-0.3c0.3,0.1,0.4,0.2,0.6,0.4l0.1,0.1c0.1,0.1,0.1,0.2,0.2,0.4s0.2,0.4,0.3,0.5c0,0,0,0,0,0.1
			c0.1,0.1,0.2,0.2,0.2,0.4c0.2,0.3,0.6,0.5,1.1,0.6c0.2,0,0.4,0,0.7,0c-0.3,0.1-0.7,0.3-1,0.4c-0.1,0-0.2,0.1-0.3,0.1
			c-0.1,0-0.2,0.1-0.3,0.1c-0.6,0.2-1.1,0.5-1.7,0.8c-0.1,0-0.1,0.1-0.2,0.1c-0.2,0.1-0.4,0.2-0.6,0.3c-0.4,0.2-0.8,0.4-1.3,0.6
			c-0.2,0.1-0.5,0.2-0.7,0.4C72.8,172.6,73.1,172.1,73.4,171.5z M69.7,174.7c-0.3,0.2-0.5,0.4-0.8,0.5c-0.1-0.3-0.1-0.6-0.2-0.8
			C69,174.6,69.4,174.6,69.7,174.7z M66.1,176.2c0,0.2,0,0.3,0.1,0.5c-0.2,0-0.3,0-0.5,0C65.8,176.6,66,176.4,66.1,176.2z
			 M61.8,177.4L61.8,177.4c0,0.1-0.1,0.1-0.1,0.1c-0.4,0.1-0.7,0.2-1.1,0.4C60,176.4,61,177,61.8,177.4z M57.8,179.3L57.8,179.3
			L57.8,179.3c0,0.1-0.1,0.1-0.2,0.2c-0.2,0.2-0.5,0.3-0.7,0.5C56.8,179.3,57,179,57.8,179.3z M56.4,183.2
			C56.4,183.2,56.5,183.1,56.4,183.2c0.3-0.5,0.7-1,1.1-1.5c0.1-0.1,0.2-0.3,0.3-0.4c2.2-2.4,4.9-3.4,7.5-3.5l-0.1,0.1
			c-0.1,0.1-0.3,0.2-0.4,0.3c-0.4,0.4-0.9,0.7-1.3,1.1c-0.1,0-0.3,0.1-0.4,0.1c-0.6,0.2-1.3,0.4-1.9,0.6c-1.3,0.5-2.5,1.2-3.5,2
			c-0.4,0.3-0.8,0.7-1.1,1C56.5,183.2,56.5,183.2,56.4,183.2c0,0.1-0.1,0.2-0.2,0.2C56.3,183.3,56.4,183.3,56.4,183.2z M60,182.9
			c-0.7,0.8-1.4,1.7-2,2.6c0.1-0.2,0.3-0.5,0.4-0.7c0.1-0.1,0.2-0.2,0.2-0.4C59.1,183.8,59.5,183.3,60,182.9z M52.2,195.5
			c0,0.1,0,0.2,0.1,0.2c0.2,0.5,0.4,1,0.7,1.4c-0.1,0.6-0.2,1.3-0.3,2c-0.2,2-0.2,4-0.1,6c-1.8-1.4-3.5-3-1.7-3.5
			c0.4-0.1,2-0.9,1.2-1.6c-1.9-1.6-2.1-3-0.1-4.5C52.1,195.5,52.1,195.5,52.2,195.5z M50.4,191.8c0.4,0.4,0.8,0.8,1.1,1.2
			c0,0.2,0.1,0.4,0.2,0.7l0,0c0,0.1-1.1,0.3-2.3,0.6C49.7,193.4,50,192.6,50.4,191.8z M47.8,200.1c0.2,0.2,0.4,0.4,0.6,0.6
			c-0.3,0.2-0.5,0.3-0.7,0.5C47.7,200.8,47.8,200.5,47.8,200.1z M55.1,221c-0.8-0.5-1.5-1.1-2.1-1.8c-3.4-4.6-5-9.2-5.3-13.8
			c0.6,0.7,1.4,1.3,2.4,1.9c1.5,0.9,1,0.3,1.3,1.6c0.3,1.1-0.5,1.6,0.3,2.8c0.6,1,1.4,1.4,2.4,1.5c0.1,0.4,0.2,0.8,0.4,1.2
			c-0.2,0.5-0.3,0.9-0.2,1.5c0,0.3,0.4,0.5,0.6,0.5H55c0,0.1,0,0.2,0.1,0.3c0,0,0,0.1-0.1,0.2c0,0.2,0,0.4,0.2,0.5
			C55.3,218.8,55.3,220,55.1,221z M122,188.5c-0.8,3.1-8.6,6.8-11,8.3c-5.8,3.7-11.8,7.1-17.9,10.3c-4.7,2.5-9.4,5-14.3,7.1
			c-3.4,1.5-7.7,4-12,5.8c-0.7,0.3-1.4,0.6-2.1,0.8c-1.4,0.5-2.8,0.9-4.1,1.1c-0.8,0.1-1.7,0.2-2.4,0.1c-0.1,0-0.3,0-0.4,0l0,0
			c0.8-1.6,0.7-3.5,0.4-5.3c0-0.1,0-0.1,0-0.2c0-0.1,0-0.2-0.1-0.3c0-0.2-0.1-0.4-0.2-0.7c-0.1-0.2-0.1-0.5-0.2-0.7
			c-0.2-0.7-0.4-1.4-0.5-2.2c0-0.1-0.1-0.2-0.1-0.3c-0.1-0.3-0.1-0.6-0.2-0.9c-0.5-2.4-1-4.8-1.1-7.2c-0.1-1.1,0-2.2,0-3.3
			c0-0.7,0.1-1.4,0.2-2.1c0-0.2,0.1-0.5,0.1-0.7c0.1-0.5,0.2-1,0.3-1.6c0.1-0.2,0.1-0.5,0.2-0.7c0.2-0.9,0.4-1.7,0.7-2.5
			c0.7-2.2,1.8-4.3,3-6.2c0.5-0.8,1-1.5,1.6-2.2c0.5-0.7,1.1-1.4,1.7-2c0.6-0.7,1.3-1.4,2-2.1c0.3-0.3,0.7-0.7,1.1-1
			c0.2-0.2,0.5-0.4,0.7-0.6c0.1-0.1,0.2-0.2,0.3-0.3c0.2-0.2,0.4-0.3,0.7-0.5c0.3-0.3,0.7-0.5,1-0.8c0,0,0,0,0.1,0
			c0.2-0.2,0.4-0.3,0.6-0.5s0.5-0.3,0.7-0.5c0.6-0.4,1.2-0.8,1.8-1.2c0.4-0.2,0.7-0.4,1.1-0.7c0.1-0.1,0.3-0.1,0.4-0.2
			c0.1,0,0.2-0.1,0.2-0.1c0.6-0.3,1.2-0.6,1.8-0.9c0.6-0.3,1.3-0.6,1.9-0.9c0.7-0.3,1.4-0.6,2.2-0.8c0.5-0.2,1-0.3,1.5-0.5
			s1.1-0.3,1.6-0.5c0.5-0.1,1-0.3,1.5-0.4c0.1,0,0.1,0,0.2,0c1.7-0.4,3.5-0.7,5.2-0.8c0.5,0,0.9-0.1,1.4-0.1s1,0,1.5,0
			c0.3,0,0.6,0,0.8,0c0.2,0,0.3,0,0.5,0s0.5,0,0.7,0.1c0.3,0,0.6,0.1,0.9,0.1c0.2,0,0.4,0,0.5,0s0.2,0,0.2,0c0.1,0,0.1,0,0.2,0
			c0.5,0.1,1,0.2,1.5,0.3c0.1,0,0.2,0,0.2,0h0.1c0.5,0.1,1.1,0.3,1.6,0.4c0.7,0.2,1.5,0.4,2.2,0.7c2.5,0.9,5,2.2,7.4,3.8
			c0.3,0.2,0.5,0.4,0.8,0.6c2.8,2.1,5.4,4.6,7.7,7.3c0.1,0.1,0.1,0.2,0.2,0.2c0.2,0.3,0.5,0.6,0.8,0.9
			C120.7,185.4,122.2,187.3,122,188.5z"/>
		<path class="st2" d="M67.6,189.2c1.8,1,3.7,1.6,5.7,2.1c0.7,0.1,1.7-0.1,2.2-0.6c0.5-0.4,0.4-0.8-0.2-0.9
			c-1.8-0.4-3.5-1.1-5.1-1.9C69.3,187.4,66.4,188.6,67.6,189.2z"/>
		<path class="st2" d="M71.1,199c0.4-0.1,0.8-0.2,1.2-0.4c0.2-0.1,0.6-0.3,0.6-0.5c0.1-0.8,0.2-1.5,0.3-2.3c0.1-0.6-0.9-0.5-1.3-0.4
			s-0.8,0.2-1.2,0.4c-0.2,0.1-0.6,0.3-0.6,0.5c-0.1,0.8-0.2,1.5-0.3,2.3C69.8,199.2,70.8,199.1,71.1,199z"/>
		<path class="st2" d="M65,202.1c-0.6-0.8-3.6,0.3-2.9,1.2c1.2,1.4,2.5,2.7,4.1,3.8c0.6,0.4,1.5,0.2,2.1,0c0.3-0.1,1.4-0.8,0.9-1.2
			C67.6,204.8,66.2,203.5,65,202.1z"/>
		<path class="st2" d="M64.7,212.2c-0.8-0.1-1.6,0.3-2.1,0.9c-0.6,0.9-1.2,1.9-1.8,2.8c-0.4,0.6,0.4,1.1,0.9,1.1
			c0.8,0.1,1.6-0.3,2.1-0.9c0.6-0.9,1.2-1.9,1.8-2.8C66,212.7,65.2,212.3,64.7,212.2z"/>
		<path class="st2" d="M77.5,183.7c0.6,0.2,1.4,0,2-0.2c0.1,0,1.4-0.7,1-0.8c-1.6-0.5-3.1-1.2-4.5-2c-0.5-0.3-1.5,0-2,0.2
			c-0.1,0.1-1.4,0.6-1,0.8C74.4,182.5,75.9,183.2,77.5,183.7z"/>
		<path class="st2" d="M81.5,187.7c-0.6,0.1-1.6,0.4-1.8,1c-0.3,0.9-0.6,1.8-0.8,2.7c-0.2,0.7,1,0.7,1.3,0.6c0.6-0.1,1.6-0.4,1.8-1
			c0.3-0.9,0.6-1.8,0.8-2.7C83,187.6,81.9,187.6,81.5,187.7z"/>
		<path class="st2" d="M91,194.4c-0.2-0.7-1.3-0.5-1.8-0.4c-1.4,0.3-2.7,0.8-3.9,1.4c-0.4,0.2-1.3,0.7-0.8,1.3
			c0.4,0.5,1.6,0.3,2.1,0.1c1-0.5,2-0.9,3.1-1.1C90.1,195.6,91.1,195.1,91,194.4z"/>
		<path class="st2" d="M93.7,181.1c-0.7,0-1.7,0.2-2.1,0.9c-0.6,1-1.1,2-1.7,2.9c-0.4,0.6,0.3,1,0.9,1c0.7,0,1.7-0.2,2.1-0.9
			c0.6-1,1.1-2,1.7-2.9C94.9,181.5,94.2,181.1,93.7,181.1z"/>
		<path class="st2" d="M86.8,179.9c0.5-0.1,1.6-0.3,1.8-1c0.4-1.1,0.7-2.3,0.9-3.5c0.2-0.9-2.9-0.4-3.1,0.5
			c-0.2,1.2-0.5,2.4-0.9,3.5C85.3,180,86.6,179.9,86.8,179.9z"/>
		<path class="st2" d="M103.9,181.7c-1-0.1-1.9-0.6-2.5-1.4c-0.1-0.2-0.7-0.1-0.8-0.1c-0.4,0-0.8,0.1-1.2,0.3
			c-0.3,0.1-1.3,0.5-0.9,0.9c0.7,0.9,1.8,1.4,2.9,1.6c0.7,0.1,1.5-0.1,2.2-0.4C103.8,182.4,104.7,181.8,103.9,181.7z"/>
		<path class="st2" d="M110.3,184.4c-0.4-0.1-0.8,0-1.2,0.1c-0.6,0.2-1.4,0.5-1.3,1.2c0.1,0.8,0,1.7-0.3,2.5c-0.2,0.7,1,0.8,1.4,0.7
			c0.6-0.1,1.6-0.4,1.8-1.1c0.3-1,0.3-1.9,0.3-2.9C110.9,184.6,110.5,184.4,110.3,184.4z"/>
		<path class="st2" d="M102.7,191.9c-0.6,0-1.7,0.2-2.1,0.8c-0.3,0.5-0.6,1.1-1,1.6c-0.4,0.6,0.3,0.8,0.8,0.8c0.6,0,1.7-0.2,2.1-0.8
			c0.3-0.5,0.6-1.1,1-1.6C103.9,192.1,103.2,191.9,102.7,191.9z"/>
		<path class="st2" d="M80.7,204.7c-0.7-0.3-1.3-0.8-1.8-1.4c-0.7-1-3.7,0.1-2.9,1.3c0.7,1,1.7,1.6,2.8,2c0.7,0.2,1.7-0.1,2.2-0.6
			C81.6,205.5,81.4,204.9,80.7,204.7z"/>
		<path class="st2" d="M91.1,201.7c-0.7,0-1.6,0.3-2.1,0.8c-0.5,0.6-1,1.2-1.5,1.8c-0.5,0.5,0.4,0.7,0.8,0.7c0.7,0,1.6-0.3,2.1-0.8
			c0.5-0.6,1-1.2,1.5-1.8C92.4,201.8,91.5,201.7,91.1,201.7z"/>
		<path class="st2" d="M75.9,210.7c-1.4-0.2-2.8-0.3-4.2-0.3c-0.6,0-1.7,0.5-1.7,1.2c-0.1,0.8,0.9,0.9,1.4,0.9
			c1.1,0,2.3,0.1,3.4,0.3c0.7,0.1,1.7-0.3,2-0.9C77.2,211.2,76.5,210.8,75.9,210.7z"/>
		<path class="st2" d="M105.4,175.5c-0.9-0.4-1.9-0.8-2.8-1.2c-0.7-0.3-1.7,0-2.2,0.6s-0.3,1.3,0.4,1.6c0.9,0.4,1.9,0.8,2.8,1.2
			c0.7,0.3,1.7,0,2.2-0.6S106.1,175.8,105.4,175.5z"/>
	</g>
	<g>
		<path class="st2" d="M306.9,206.2c0.6,2.5,4.9,4.8,6.7,6.1c10.8,7.6,22.7,14,34.5,19.7c4.4,2.1,8.9,3.9,13.3,5.9
			c2.4,1.1,4.7,2.3,7,3.1c2.6,1.4,5.9,1.7,8.7,0.9c0.1,0,0.1,0,0.2,0s0.2-0.1,0.3-0.1c1.7-0.6,3.2-1.6,4.2-3
			c6.1-8.3,7.1-20,2.9-29.3c-1-2.2-2.3-4.3-3.8-6.3c-0.1-0.2-0.3-0.5-0.6-0.7c-0.6-0.8-1.3-1.6-2-2.4c0.7-1.2,1-2.3-0.7-3.7
			c-0.9-0.7-1.9-1-3-1.1c-0.2-1-0.9-1.8-2.1-2.3c-0.8-0.4-1.4-0.6-2.3-0.5c0,0-0.2,0.1-0.4,0.1c-0.6-0.5-1.3-0.9-1.9-1.3
			c0-0.4-0.1-0.9-0.3-1.3c-0.1-0.2-0.2-0.3-0.3-0.5c-0.5-0.7-1.1-1.2-1.9-1.5c-1-0.3-1.8-0.2-2.6,0.2c-0.6-0.3-1.1-0.6-1.7-0.9
			c-0.3-0.6-0.8-1.1-1.7-1.3c-0.6-0.7-1.3-1.3-2.2-1.6c-1.1-0.4-2.1-0.6-2.9-0.1c-0.6-0.2-1.1-0.4-1.7-0.6c-1.5-0.7-3.2-1.2-4.8-1.4
			c-2.7-0.6-5.5-0.9-8.3-0.8c-6.2,0.2-11.9,2.7-16.7,6.6c-1.8,1.5-3.4,3.1-4.9,4.8c-3.4,2.6-6.5,5.8-9.1,9.3
			C308,203.1,306.5,204.5,306.9,206.2z M338.4,183.5c-0.8,0.4-1.6,1-2.3,1.6c-0.5-0.1-1,0-1.5,0.4c-1.5,0.2-2.9,0.4-4.4,0.8
			C332.8,184.9,335.5,183.9,338.4,183.5z M348.2,183.2c-0.3,0.1-0.5,0.3-0.7,0.6l-0.1,0.1c-1-0.1-1.9-0.2-2.9-0.1
			c-0.2-0.1-0.5-0.2-0.7-0.3c0.2-0.1,0.5-0.1,0.7-0.2C345.7,183,346.9,183,348.2,183.2z M352.5,188c-0.1,0-0.2-0.1-0.3-0.1
			c-0.1,0-0.2-0.1-0.3-0.1c-0.5-0.2-1-0.4-1.5-0.5c-0.3-0.1-0.6-0.2-0.8-0.2c0.1-0.3,0.2-0.6,0.3-0.8c0.7-1.2,1,0.2,2,1.3l0.1,0.1
			C352.2,187.7,352.3,187.9,352.5,188z M359.6,191.2c-0.2-0.1-0.5-0.2-0.7-0.4c-0.4-0.2-0.8-0.4-1.3-0.6c-0.2-0.1-0.4-0.2-0.6-0.3
			c-0.1,0-0.1-0.1-0.2-0.1c-0.6-0.3-1.1-0.5-1.7-0.8c-0.1,0-0.2-0.1-0.3-0.1c-0.1,0-0.2-0.1-0.3-0.1c-0.3-0.1-0.7-0.3-1-0.4
			c0.3,0,0.5,0,0.7,0c0.5-0.1,0.8-0.3,1.1-0.6c0.1-0.1,0.2-0.2,0.2-0.4c0,0,0,0,0-0.1c0.1-0.2,0.2-0.4,0.3-0.5
			c0.1-0.1,0.1-0.3,0.2-0.4c0-0.1,0.1-0.1,0.1-0.1c0.2-0.2,0.3-0.3,0.6-0.4c0,0,0.1,0.1,0.2,0.3s0.2,0.5,0.4,0.8
			c0.1,0.2,0.2,0.5,0.3,0.7c0.2,0.5,0.5,1.1,0.8,1.7C358.9,190.1,359.2,190.7,359.6,191.2z M363.3,192.5c-0.1,0.2-0.1,0.5-0.2,0.8
			c-0.3-0.2-0.5-0.4-0.8-0.5C362.6,192.7,363,192.6,363.3,192.5z M366.3,194.8c-0.2,0-0.3,0-0.5,0c0-0.1,0-0.3,0.1-0.5
			C366,194.5,366.2,194.6,366.3,194.8z M371.5,196c-0.4-0.1-0.7-0.3-1.1-0.4c-0.1,0-0.2-0.1-0.2-0.1h0.1
			C371,195.1,372,194.5,371.5,196z M375.1,198c-0.2-0.2-0.5-0.3-0.7-0.5c-0.1,0-0.2-0.1-0.2-0.1l0,0l0,0
			C375,197,375.2,197.4,375.1,198z M375.7,201.5c-0.1-0.1-0.1-0.1-0.2-0.2c0,0,0-0.1-0.1-0.1c-0.4-0.4-0.7-0.7-1.1-1
			c-1-0.8-2.2-1.5-3.5-2c-0.6-0.2-1.2-0.4-1.9-0.6c-0.1,0-0.3-0.1-0.4-0.1c-0.4-0.4-0.8-0.7-1.3-1.1c-0.1-0.1-0.3-0.2-0.4-0.3
			l-0.1-0.1c2.6,0,5.2,1.1,7.5,3.5c0.1,0.1,0.2,0.3,0.3,0.4c0.4,0.4,0.7,0.9,1,1.4l0,0C375.6,201.3,375.7,201.4,375.7,201.5z
			 M373.3,202.4c0.1,0.1,0.2,0.2,0.2,0.4c0.2,0.2,0.3,0.5,0.4,0.7c-0.6-0.9-1.3-1.7-2-2.6C372.5,201.4,372.9,201.9,373.3,202.4z
			 M380,213.6c2,1.4,1.9,2.9-0.1,4.5c-0.8,0.6,0.8,1.5,1.2,1.6c1.9,0.6,0.1,2.1-1.7,3.5c0.1-2,0.1-4-0.1-6c-0.1-0.7-0.2-1.3-0.3-2
			c0.2-0.5,0.5-0.9,0.7-1.4c0-0.1,0.1-0.2,0.1-0.2C379.9,213.6,379.9,213.6,380,213.6z M382.6,212.3c-1.2-0.3-2.2-0.5-2.3-0.6l0,0
			c0.1-0.2,0.1-0.4,0.2-0.7c0.2-0.4,0.7-0.7,1.1-1.2C382,210.6,382.3,211.5,382.6,212.3z M384.3,219.2c-0.2-0.2-0.4-0.3-0.7-0.5
			c0.2-0.2,0.4-0.4,0.6-0.6C384.2,218.5,384.3,218.9,384.3,219.2z M377,235.5c0.1-0.1,0.2-0.3,0.2-0.5c0-0.1,0-0.1-0.1-0.2
			c0-0.1,0-0.2,0.1-0.3h0.1c0.2,0,0.6-0.3,0.6-0.5c0.1-0.6,0-1.1-0.2-1.5c0.1-0.4,0.2-0.8,0.4-1.2c0.9-0.2,1.8-0.6,2.4-1.5
			c0.8-1.3,0-1.7,0.3-2.8c0.3-1.3-0.1-0.7,1.3-1.6c1-0.6,1.8-1.2,2.4-1.9c-0.3,4.6-2,9.3-5.3,13.8c-0.6,0.7-1.3,1.3-2.1,1.8
			C376.7,238.1,376.7,236.8,377,235.5z M312.5,202.1c0.3-0.4,0.6-0.7,0.8-0.9c0.1-0.1,0.1-0.2,0.2-0.2c2.3-2.7,4.8-5.2,7.7-7.3
			c0.3-0.2,0.5-0.4,0.8-0.6c2.4-1.7,4.9-2.9,7.4-3.8c0.7-0.3,1.4-0.5,2.2-0.7c0.5-0.1,1.1-0.3,1.6-0.4h0.1c0.1,0,0.2,0,0.2,0
			c0.5-0.1,1-0.2,1.5-0.3c0.1,0,0.1,0,0.2,0s0.2,0,0.2,0c0.2,0,0.4,0,0.5,0c0.3,0,0.6-0.1,0.9-0.1c0.2,0,0.5-0.1,0.7-0.1
			s0.3,0,0.5,0c0.3,0,0.6,0,0.8,0c0.5,0,1,0,1.5,0s0.9,0,1.4,0.1c1.7,0.1,3.5,0.4,5.2,0.8c0.1,0,0.1,0,0.2,0c0.5,0.1,1,0.3,1.5,0.4
			c0.5,0.1,1.1,0.3,1.6,0.5s1,0.3,1.5,0.5c0.7,0.3,1.4,0.5,2.2,0.8c0.6,0.3,1.3,0.6,1.9,0.9c0.6,0.3,1.2,0.6,1.8,0.9
			c0.1,0,0.2,0.1,0.2,0.1c0.1,0.1,0.3,0.1,0.4,0.2c0.4,0.2,0.7,0.4,1.1,0.7c0.6,0.4,1.2,0.8,1.8,1.2c0.2,0.2,0.5,0.3,0.7,0.5
			s0.4,0.3,0.6,0.5c0,0,0,0,0.1,0c0.3,0.2,0.7,0.5,1,0.8c0.2,0.2,0.4,0.3,0.7,0.5c0.1,0.1,0.2,0.2,0.3,0.3c0.2,0.2,0.5,0.4,0.7,0.6
			c0.4,0.3,0.7,0.6,1.1,1c0.7,0.7,1.4,1.4,2,2.1c0.6,0.7,1.2,1.3,1.7,2c0.6,0.7,1.1,1.5,1.6,2.2c1.2,1.9,2.2,4,3,6.2
			c0.3,0.8,0.5,1.7,0.7,2.5c0.1,0.2,0.1,0.5,0.2,0.7c0.1,0.5,0.2,1,0.3,1.6c0,0.2,0.1,0.5,0.1,0.7c0.1,0.7,0.1,1.4,0.2,2.1
			c0.1,1.1,0.1,2.2,0,3.3c-0.1,2.4-0.6,4.8-1.1,7.2c-0.1,0.3-0.1,0.6-0.2,0.9c0,0.1-0.1,0.2-0.1,0.3c-0.2,0.7-0.4,1.4-0.5,2.2
			c-0.1,0.2-0.1,0.5-0.2,0.7s-0.1,0.4-0.2,0.7c0,0.1,0,0.2-0.1,0.3c0,0.1,0,0.1,0,0.2c-0.4,1.8-0.5,3.8,0.4,5.3l0,0
			c-0.1,0-0.3,0-0.4,0c-0.8,0-1.6,0-2.4-0.1c-1.3-0.2-2.7-0.6-4.1-1.1c-0.7-0.2-1.4-0.5-2.1-0.8c-4.3-1.8-8.7-4.4-12-5.8
			c-4.9-2.1-9.6-4.6-14.3-7.1c-6.1-3.2-12.1-6.6-17.9-10.3c-2.4-1.5-10.2-5.2-11-8.3C309.8,205.4,311.3,203.5,312.5,202.1z"/>
		<path class="st2" d="M364.4,207.3c-1.8,1-3.7,1.6-5.7,2.1c-0.7,0.1-1.7-0.1-2.2-0.6c-0.5-0.4-0.4-0.8,0.2-0.9
			c1.8-0.4,3.5-1.1,5.1-1.9C362.7,205.5,365.6,206.7,364.4,207.3z"/>
		<path class="st2" d="M360.9,217.1c-0.4-0.1-0.8-0.2-1.2-0.4c-0.2-0.1-0.6-0.3-0.6-0.5c-0.1-0.8-0.2-1.5-0.3-2.3
			c-0.1-0.6,0.9-0.5,1.3-0.4s0.8,0.2,1.2,0.4c0.2,0.1,0.6,0.3,0.6,0.5c0.1,0.8,0.2,1.5,0.3,2.3C362.2,217.3,361.2,217.1,360.9,217.1
			z"/>
		<path class="st2" d="M367,220.1c0.6-0.8,3.6,0.3,2.9,1.2c-1.2,1.4-2.5,2.7-4.1,3.8c-0.6,0.4-1.5,0.2-2.1,0
			c-0.3-0.1-1.4-0.8-0.9-1.2C364.4,222.8,365.8,221.6,367,220.1z"/>
		<path class="st2" d="M367.3,230.3c0.8-0.1,1.6,0.3,2.1,0.9c0.6,0.9,1.2,1.9,1.8,2.8c0.4,0.6-0.4,1.1-0.9,1.1
			c-0.8,0.1-1.6-0.3-2.1-0.9c-0.6-0.9-1.2-1.9-1.8-2.8C366,230.8,366.8,230.3,367.3,230.3z"/>
		<path class="st2" d="M354.5,201.8c-0.6,0.2-1.4,0-2-0.2c-0.1,0-1.4-0.7-1-0.8c1.6-0.5,3.1-1.2,4.5-2c0.5-0.3,1.5,0,2,0.2
			c0.1,0.1,1.4,0.6,1,0.8C357.6,200.6,356.1,201.2,354.5,201.8z"/>
		<path class="st2" d="M350.5,205.7c0.6,0.1,1.6,0.4,1.8,1c0.3,0.9,0.6,1.8,0.8,2.7c0.2,0.7-1,0.7-1.3,0.6c-0.6-0.1-1.6-0.4-1.8-1
			c-0.3-0.9-0.6-1.8-0.8-2.7C349,205.7,350.1,205.7,350.5,205.7z"/>
		<path class="st2" d="M341,212.5c0.2-0.7,1.3-0.5,1.8-0.4c1.4,0.3,2.7,0.8,3.9,1.4c0.4,0.2,1.3,0.7,0.8,1.3
			c-0.4,0.5-1.6,0.3-2.1,0.1c-1-0.5-2-0.9-3.1-1.1C341.9,213.6,340.9,213.1,341,212.5z"/>
		<path class="st2" d="M338.3,199.1c0.7,0,1.7,0.2,2.1,0.9c0.6,1,1.1,2,1.7,2.9c0.4,0.6-0.3,1-0.9,1c-0.7,0-1.7-0.2-2.1-0.9
			c-0.6-1-1.1-2-1.7-2.9C337.1,199.5,337.8,199.1,338.3,199.1z"/>
		<path class="st2" d="M345.2,197.9c-0.5-0.1-1.6-0.3-1.8-1c-0.4-1.1-0.7-2.3-0.9-3.5c-0.2-0.9,2.9-0.4,3.1,0.5
			c0.2,1.2,0.5,2.4,0.9,3.5C346.7,198.1,345.4,198,345.2,197.9z"/>
		<path class="st2" d="M328.1,199.7c1-0.1,1.9-0.6,2.5-1.4c0.1-0.2,0.7-0.1,0.8-0.1c0.4,0,0.8,0.1,1.2,0.3c0.3,0.1,1.3,0.5,0.9,0.9
			c-0.7,0.9-1.8,1.4-2.9,1.6c-0.7,0.1-1.5-0.1-2.2-0.4C328.2,200.4,327.3,199.8,328.1,199.7z"/>
		<path class="st2" d="M321.7,202.4c0.4-0.1,0.8,0,1.2,0.1c0.6,0.2,1.4,0.5,1.3,1.2c-0.1,0.8,0,1.7,0.3,2.5c0.2,0.7-1,0.8-1.4,0.7
			c-0.6-0.1-1.6-0.4-1.8-1.1c-0.3-1-0.3-1.9-0.3-2.9C321.1,202.6,321.5,202.5,321.7,202.4z"/>
		<path class="st2" d="M329.3,209.9c0.6,0,1.7,0.2,2.1,0.8c0.3,0.5,0.6,1.1,1,1.6c0.4,0.6-0.3,0.8-0.8,0.8c-0.6,0-1.7-0.2-2.1-0.8
			c-0.3-0.5-0.6-1.1-1-1.6C328.1,210.1,328.8,209.9,329.3,209.9z"/>
		<path class="st2" d="M351.3,222.8c0.7-0.3,1.3-0.8,1.8-1.4c0.7-1,3.7,0.1,2.9,1.3c-0.7,1-1.7,1.6-2.8,2c-0.7,0.2-1.7-0.1-2.2-0.6
			C350.4,223.5,350.6,223,351.3,222.8z"/>
		<path class="st2" d="M340.9,219.7c0.7,0,1.6,0.3,2.1,0.8c0.5,0.6,1,1.2,1.5,1.8c0.5,0.5-0.4,0.7-0.8,0.7c-0.7,0-1.6-0.3-2.1-0.8
			c-0.5-0.6-1-1.2-1.5-1.8C339.6,219.9,340.5,219.7,340.9,219.7z"/>
		<path class="st2" d="M356.1,228.7c1.4-0.2,2.8-0.3,4.2-0.3c0.6,0,1.7,0.5,1.7,1.2c0.1,0.8-0.9,0.9-1.4,0.9c-1.1,0-2.3,0.1-3.4,0.3
			c-0.7,0.1-1.7-0.3-2-0.9C354.8,229.2,355.5,228.8,356.1,228.7z"/>
		<path class="st2" d="M326.6,193.6c0.9-0.4,1.9-0.8,2.8-1.2c0.7-0.3,1.7,0,2.2,0.6s0.3,1.3-0.4,1.6c-0.9,0.4-1.9,0.8-2.8,1.2
			c-0.7,0.3-1.7,0-2.2-0.6S325.9,193.9,326.6,193.6z"/>
	</g>
	<path class="st2" d="M181.8,375.7c0.6,1.5,1.6,2.7,3.1,3.3c2.5,1,5.5,0.3,6.8-2.1c0.7-1.2,0.7-2.9-0.1-4s-2.6-1.5-3.7-0.7
		c-0.6,0.5-1,1.3-1,2c-3.4-6.2,2.1-9.9,7.5-11.4c4.1-1.1,8.3-0.6,12.5-0.1c8.4,1.1,16.4,3.6,24.3,6.7c10.8,4.2,23,7.4,33.2,0.2
		c2.7-1.9,5-6.7,4-10.1c-1.6-5.3-8.2-8.5-12.6-4.5c-2.8,2.6-3.2,6.7,0.2,9c2.6,1.8,6.8-0.6,5.5-3.9c-0.7-2-3.6-2.3-4.8-0.7
		c5.4-6.9,14.8,6.2,4.6,8.1c-3.1,0.6-6.2,0.1-9.2-0.6c-6.1-1.6-11.7-4.6-17.4-7.1c-8.9-3.8-17.8-7.1-27.6-7.1
		c-7.1,0-14.1,2.1-19.7,6.5c-3.6,2.9-5.8,6.7-6.2,11.3C181,372.1,181.2,374,181.8,375.7z M206.9,355.6c8.6-0.5,17,2.8,24.8,6
		c5.2,2.2,17.1,8.5,25.7,8.5c-0.7,0.2-1.3,0.4-1.9,0.6c-4.8,1.3-10.2,0.1-14.9-1.2c-7.3-2-14.2-5.4-21.6-7.5
		c-9.4-2.6-20.9-4.7-29.8-0.1C193.7,357.8,201.3,355.9,206.9,355.6z"/>
</g>
</svg>
